<svg width="837" height="217" viewBox="0 0 837 217" fill="none" xmlns="http://www.w3.org/2000/svg">
<path d="M376.067 1C399.6 33.5 452.418 229 295.532 171C102.04 55 304.945 55 141.784 15C8.21086 -17.7463 -25.8255 87.5689 127.189 216M540 216C540 216 571.651 106 655.323 124C655.323 124 814.742 141.491 734.473 216M447.453 216C453.348 202.822 458.553 187.894 462.877 171C462.877 171 512.034 33 341.552 124C341.552 124 217.467 186.299 224.936 216M623.052 216C600.357 164.582 687.747 98 687.747 98C687.747 98 800.704 147 793.383 115C786.062 83 703.226 80.2 731.675 53C755.864 29.872 803.966 56.1468 836 80" stroke="white"/>
</svg>
