<svg width="18" height="16" viewBox="0 0 18 16" fill="none" xmlns="http://www.w3.org/2000/svg">
<path fill-rule="evenodd" clip-rule="evenodd" d="M2 0.472656C0.89 0.472656 0 1.22597 0 2.1655V14.0154C0 14.9503 0.89543 15.7083 2 15.7083H16C17.1046 15.7083 18 14.9503 18 14.0154V8.09045H16V14.0154H2V2.1655H9V0.472656H2ZM14.78 1.31908C14.61 1.31908 14.43 1.37833 14.3 1.48836L13.08 2.51253L15.58 4.62859L16.8 3.60442C17.06 3.38435 17.06 3.01192 16.8 2.80032L15.25 1.48836C15.12 1.37833 14.95 1.31908 14.78 1.31908ZM12.37 3.11349L5 9.36009V11.4761H7.5L14.87 5.22955L12.37 3.11349Z" fill="#223263"/>
<mask id="mask0" mask-type="alpha" maskUnits="userSpaceOnUse" x="0" y="0" width="18" height="16">
<path fill-rule="evenodd" clip-rule="evenodd" d="M2 0.472656C0.89 0.472656 0 1.22597 0 2.1655V14.0154C0 14.9503 0.89543 15.7083 2 15.7083H16C17.1046 15.7083 18 14.9503 18 14.0154V8.09045H16V14.0154H2V2.1655H9V0.472656H2ZM14.78 1.31908C14.61 1.31908 14.43 1.37833 14.3 1.48836L13.08 2.51253L15.58 4.62859L16.8 3.60442C17.06 3.38435 17.06 3.01192 16.8 2.80032L15.25 1.48836C15.12 1.37833 14.95 1.31908 14.78 1.31908ZM12.37 3.11349L5 9.36009V11.4761H7.5L14.87 5.22955L12.37 3.11349Z" fill="white"/>
</mask>
<g mask="url(#mask0)">
</g>
</svg>
