<svg width="17" height="16" viewBox="0 0 17 16" fill="none" xmlns="http://www.w3.org/2000/svg">
<path d="M16.3445 6.43323H15.7001V6.40003H8.50003V9.60004H13.0213C12.3617 11.4628 10.5892 12.8001 8.50003 12.8001C5.84922 12.8001 3.70001 10.6508 3.70001 8.00003C3.70001 5.34922 5.84922 3.20001 8.50003 3.20001C9.72364 3.20001 10.8368 3.66162 11.6844 4.41562L13.9473 2.15281C12.5185 0.821203 10.6072 0 8.50003 0C4.08202 0 0.5 3.58202 0.5 8.00003C0.5 12.4181 4.08202 16.0001 8.50003 16.0001C12.9181 16.0001 16.5001 12.4181 16.5001 8.00003C16.5001 7.46363 16.4449 6.94003 16.3445 6.43323Z" fill="#FFC107"/>
<path d="M1.42188 4.27642L4.05029 6.20403C4.76149 4.44322 6.4839 3.20001 8.49951 3.20001C9.72311 3.20001 10.8363 3.66162 11.6839 4.41562L13.9467 2.15281C12.5179 0.821203 10.6067 0 8.49951 0C5.42669 0 2.76188 1.73481 1.42188 4.27642Z" fill="#FF3D00"/>
<path d="M8.49996 16.0005C10.5664 16.0005 12.444 15.2097 13.8636 13.9237L11.3876 11.8285C10.5844 12.4369 9.58596 12.8005 8.49996 12.8005C6.41915 12.8005 4.65234 11.4737 3.98674 9.62207L1.37793 11.6321C2.70194 14.2229 5.39075 16.0005 8.49996 16.0005Z" fill="#4CAF50"/>
<path d="M16.3444 6.4331H15.7V6.3999H8.5V9.59992H13.0212C12.7044 10.4947 12.1288 11.2663 11.3864 11.8283C11.3868 11.8279 11.3872 11.8279 11.3876 11.8275L13.8636 13.9227C13.6884 14.0819 16.5 11.9999 16.5 7.99991C16.5 7.46351 16.4448 6.9399 16.3444 6.4331Z" fill="#1976D2"/>
</svg>
