<svg width="18" height="18" viewBox="0 0 18 18" fill="none" xmlns="http://www.w3.org/2000/svg">
<path fill-rule="evenodd" clip-rule="evenodd" d="M1.89474 0C0.843158 0 0 0.852632 0 1.89474V15.1579C0 16.2043 0.848303 17.0526 1.89474 17.0526H15.1579C16.2043 17.0526 17.0526 16.2043 17.0526 15.1579V12.9979C17.6116 12.6663 18 12.0695 18 11.3684V5.68421C18 4.98316 17.6116 4.38632 17.0526 4.05474V1.89474C17.0526 0.848303 16.2043 0 15.1579 0H1.89474V0ZM1.89474 1.89474H15.1579V3.78947H9.47368C8.42725 3.78947 7.57895 4.63778 7.57895 5.68421V11.3684C7.57895 12.4149 8.42725 13.2632 9.47368 13.2632H15.1579V15.1579H1.89474V1.89474V1.89474ZM9.47368 5.68421H16.1053V11.3684H9.47368V5.68421V5.68421ZM12.3158 7.10526C11.531 7.10526 10.8947 7.74149 10.8947 8.52632C10.8947 9.31114 11.531 9.94737 12.3158 9.94737C13.1006 9.94737 13.7368 9.31114 13.7368 8.52632C13.7368 7.74149 13.1006 7.10526 12.3158 7.10526Z" fill="#223263"/>
<mask id="mask0" mask-type="alpha" maskUnits="userSpaceOnUse" x="0" y="0" width="18" height="18">
<path fill-rule="evenodd" clip-rule="evenodd" d="M1.89474 0C0.843158 0 0 0.852632 0 1.89474V15.1579C0 16.2043 0.848303 17.0526 1.89474 17.0526H15.1579C16.2043 17.0526 17.0526 16.2043 17.0526 15.1579V12.9979C17.6116 12.6663 18 12.0695 18 11.3684V5.68421C18 4.98316 17.6116 4.38632 17.0526 4.05474V1.89474C17.0526 0.848303 16.2043 0 15.1579 0H1.89474V0ZM1.89474 1.89474H15.1579V3.78947H9.47368C8.42725 3.78947 7.57895 4.63778 7.57895 5.68421V11.3684C7.57895 12.4149 8.42725 13.2632 9.47368 13.2632H15.1579V15.1579H1.89474V1.89474V1.89474ZM9.47368 5.68421H16.1053V11.3684H9.47368V5.68421V5.68421ZM12.3158 7.10526C11.531 7.10526 10.8947 7.74149 10.8947 8.52632C10.8947 9.31114 11.531 9.94737 12.3158 9.94737C13.1006 9.94737 13.7368 9.31114 13.7368 8.52632C13.7368 7.74149 13.1006 7.10526 12.3158 7.10526Z" fill="white"/>
</mask>
<g mask="url(#mask0)">
</g>
</svg>
