<svg width="19" height="19" viewBox="0 0 19 19" fill="none" xmlns="http://www.w3.org/2000/svg">
<path fill-rule="evenodd" clip-rule="evenodd" d="M7 0.5C10.5899 0.5 13.5 3.41015 13.5 7C13.5 8.61 12.91 10.09 11.94 11.23L12.21 11.5H13L18 16.5L16.5 18L11.5 13V12.21L11.23 11.94C10.09 12.91 8.61 13.5 7 13.5C3.41015 13.5 0.5 10.5899 0.5 7C0.5 3.41015 3.41015 0.5 7 0.5ZM7 2.5C4.5 2.5 2.5 4.5 2.5 7C2.5 9.5 4.5 11.5 7 11.5C9.5 11.5 11.5 9.5 11.5 7C11.5 4.5 9.5 2.5 7 2.5Z" fill="white"/>
<mask id="mask0" mask-type="alpha" maskUnits="userSpaceOnUse" x="0" y="0" width="18" height="18">
<path fill-rule="evenodd" clip-rule="evenodd" d="M7 0.5C10.5899 0.5 13.5 3.41015 13.5 7C13.5 8.61 12.91 10.09 11.94 11.23L12.21 11.5H13L18 16.5L16.5 18L11.5 13V12.21L11.23 11.94C10.09 12.91 8.61 13.5 7 13.5C3.41015 13.5 0.5 10.5899 0.5 7C0.5 3.41015 3.41015 0.5 7 0.5ZM7 2.5C4.5 2.5 2.5 4.5 2.5 7C2.5 9.5 4.5 11.5 7 11.5C9.5 11.5 11.5 9.5 11.5 7C11.5 4.5 9.5 2.5 7 2.5Z" fill="white"/>
</mask>
<g mask="url(#mask0)">
</g>
</svg>
