<svg width="71" height="71" viewBox="0 0 71 71" fill="none" xmlns="http://www.w3.org/2000/svg">
<path d="M62.9993 7.99415C52.4004 -2.63404 35.1925 -2.65802 24.5643 7.94084C14.3092 18.1675 13.8753 34.6394 23.5776 45.3919L21.5021 47.4674C19.8252 45.7904 17.1063 45.79 15.4292 47.4669C15.4291 47.467 15.4289 47.4672 15.4287 47.4674L1.25802 61.6381C-0.419029 63.315 -0.419387 66.0339 1.25748 67.7109C1.25766 67.7111 1.25784 67.7113 1.25802 67.7115L3.28199 69.7354C4.95886 71.4118 7.67705 71.4118 9.35392 69.7354L23.5246 55.5647C25.2017 53.8879 25.202 51.169 23.5251 49.4919C23.525 49.4917 23.5248 49.4916 23.5246 49.4914L25.6001 47.4159C36.7363 57.4798 53.9222 56.6104 63.9861 45.4744C73.7069 34.7177 73.2727 18.2244 62.9993 7.99415ZM21.5021 53.5393L7.33137 67.71C6.77242 68.2688 5.86635 68.2688 5.3074 67.71L3.28342 65.6846C2.72554 65.1258 2.72554 64.2208 3.28342 63.6621L17.4541 49.4914C18.0202 48.9501 18.912 48.9501 19.4781 49.4914L21.5021 51.5168C22.0599 52.0756 22.0599 52.9806 21.5021 53.5393ZM60.9768 44.4314C51.4738 53.934 36.0666 53.9339 26.564 44.4309C17.0614 34.928 17.0616 19.5207 26.5645 10.0181C36.0673 0.515715 51.474 0.515715 60.9768 10.0181C70.4641 19.5275 70.4641 34.922 60.9768 44.4314Z" fill="#223263"/>
<path d="M58.9513 12.042L56.9274 14.066C64.1818 21.3381 64.1818 33.1098 56.9274 40.382L58.9513 42.4059C67.3242 34.0162 67.3242 20.4317 58.9513 12.042Z" fill="#223263"/>
</svg>
