<svg width="18" height="19" viewBox="0 0 18 19" fill="none" xmlns="http://www.w3.org/2000/svg">
<g clip-path="url(#clip0)">
<path d="M15.0001 7.25C15.0001 11.9244 10.8568 16.0808 9.45632 17.3522C9.19344 17.5908 8.80682 17.5908 8.54394 17.3522C7.14348 16.0808 3.00013 11.9244 3.00013 7.25C3.00013 3.93629 5.68642 1.25 9.00013 1.25C12.3138 1.25 15.0001 3.93629 15.0001 7.25Z" stroke="#9098B1" stroke-width="2" stroke-linecap="round"/>
<path d="M11.2501 7.25C11.2501 8.49264 10.2428 9.5 9.00013 9.5C7.75749 9.5 6.75013 8.49264 6.75013 7.25C6.75013 6.00736 7.75749 5 9.00013 5C10.2428 5 11.2501 6.00736 11.2501 7.25Z" stroke="#9098B1" stroke-width="2" stroke-linecap="round"/>
</g>
<defs>
<clipPath id="clip0">
<rect width="18" height="18" fill="white" transform="translate(0 0.5)"/>
</clipPath>
</defs>
</svg>
