<svg width="108" height="18" viewBox="0 0 108 18" fill="none" xmlns="http://www.w3.org/2000/svg">
<path d="M9 0L11.994 4.87912L17.5595 6.21885L13.8444 10.574L14.2901 16.2812L9 14.0937L3.70993 16.2812L4.15561 10.574L0.440492 6.21885L6.006 4.87912L9 0Z" fill="#FFC833"/>
<path d="M31.5 0L34.494 4.87912L40.0595 6.21885L36.3444 10.574L36.7901 16.2812L31.5 14.0937L26.2099 16.2812L26.6556 10.574L22.9405 6.21885L28.506 4.87912L31.5 0Z" fill="#FFC833"/>
<path d="M54 0L56.994 4.87912L62.5595 6.21885L58.8444 10.574L59.2901 16.2812L54 14.0937L48.7099 16.2812L49.1556 10.574L45.4405 6.21885L51.006 4.87912L54 0Z" fill="#FFC833"/>
<path d="M76.5 0L79.494 4.87912L85.0595 6.21885L81.3444 10.574L81.7901 16.2812L76.5 14.0937L71.2099 16.2812L71.6556 10.574L67.9405 6.21885L73.506 4.87912L76.5 0Z" fill="#FFC833"/>
<path d="M99 0L101.994 4.87912L107.56 6.21885L103.844 10.574L104.29 16.2812L99 14.0937L93.7099 16.2812L94.1556 10.574L90.4405 6.21885L96.006 4.87912L99 0Z" fill="#FFC833"/>
</svg>
