<svg width="130" height="18" viewBox="0 0 130 18" fill="none" xmlns="http://www.w3.org/2000/svg">
<path d="M9.27979 0L12.2738 4.87912L17.8393 6.21885L14.1242 10.574L14.5699 16.2812L9.27979 14.0937L3.98972 16.2812L4.43539 10.574L0.720277 6.21885L6.28579 4.87912L9.27979 0Z" fill="#FFC833"/>
<path d="M37.2798 0L40.2738 4.87912L45.8393 6.21885L42.1242 10.574L42.5699 16.2812L37.2798 14.0937L31.9897 16.2812L32.4354 10.574L28.7203 6.21885L34.2858 4.87912L37.2798 0Z" fill="#FFC833"/>
<path d="M65.2798 0L68.2738 4.87912L73.8393 6.21885L70.1242 10.574L70.5698 16.2812L65.2798 14.0937L59.9897 16.2812L60.4354 10.574L56.7203 6.21885L62.2858 4.87912L65.2798 0Z" fill="#FFC833"/>
<path d="M93.2798 0L96.2738 4.87912L101.839 6.21885L98.1242 10.574L98.5699 16.2812L93.2798 14.0937L87.9897 16.2812L88.4354 10.574L84.7203 6.21885L90.2858 4.87912L93.2798 0Z" fill="#FFC833"/>
<path d="M121.28 0L124.274 4.87912L129.839 6.21885L126.124 10.574L126.57 16.2812L121.28 14.0937L115.99 16.2812L116.435 10.574L112.72 6.21885L118.286 4.87912L121.28 0Z" fill="#FFC833"/>
</svg>
