<svg width="16" height="16" viewBox="0 0 16 16" fill="none" xmlns="http://www.w3.org/2000/svg">
<path fill-rule="evenodd" clip-rule="evenodd" d="M4.64 0H11.36C13.92 0 16 2.08 16 4.64V11.36C16 13.9226 13.9226 16 11.36 16H4.64C2.08 16 0 13.92 0 11.36V4.64C0 2.0774 2.0774 0 4.64 0ZM4.48 1.59999C2.88942 1.59999 1.6 2.88941 1.6 4.47999V11.52C1.6 13.112 2.888 14.4 4.48 14.4H11.52C13.1106 14.4 14.4 13.1106 14.4 11.52V4.47999C14.4 2.88799 13.112 1.59999 11.52 1.59999H4.48ZM12.2 2.8C12.7523 2.8 13.2 3.24771 13.2 3.8C13.2 4.35228 12.7523 4.8 12.2 4.8C11.6477 4.8 11.2 4.35228 11.2 3.8C11.2 3.24771 11.6477 2.8 12.2 2.8ZM8 4C10.2091 4 12 5.79086 12 8C12 10.2091 10.2091 12 8 12C5.79086 12 4 10.2091 4 8C4 5.79086 5.79086 4 8 4ZM8 5.59999C6.67452 5.59999 5.6 6.67451 5.6 8C5.6 9.32548 6.67452 10.4 8 10.4C9.32549 10.4 10.4 9.32548 10.4 8C10.4 6.67451 9.32549 5.59999 8 5.59999Z" fill="#8F92A1"/>
</svg>
