<svg width="252" height="197" viewBox="0 0 252 197" fill="none" xmlns="http://www.w3.org/2000/svg">
<g filter="url(#filter0_d)">
<path d="M113.505 69.3758L113.626 70.1169C113.966 72.205 115.655 73.5893 117.429 73.2349L121.495 72.4223C122.196 72.2395 122.827 71.8519 123.306 71.3092C123.784 70.7665 124.089 70.0935 124.181 69.3768L124.613 66.9666C125.05 64.5329 123.48 62.2412 121.371 62.2412H118.488C115.298 62.2412 112.899 65.6764 113.501 69.3768" fill="#FFC399"/>
</g>
<g filter="url(#filter1_d)">
<path d="M64.0939 117.695L64.2148 118.435C64.5547 120.523 66.2436 121.909 68.018 121.554L72.0835 120.741C72.785 120.558 73.4157 120.17 73.8943 119.628C74.373 119.085 74.6778 118.412 74.7696 117.695L75.2029 115.284C75.6401 112.85 74.0701 110.559 71.9607 110.559H69.0771C65.8879 110.559 63.4877 113.993 64.091 117.694" fill="#FFC399"/>
</g>
<path d="M41.2316 11.3579C41.2316 11.3579 36.7278 11.1778 35.036 14.8038C33.3441 18.4299 33.9179 28.3213 32.4255 30.7863C30.9331 33.2513 29.93 34.7197 31.8517 35.5411C33.7735 36.3624 39.9975 30.1411 40.7727 25.0662C41.5479 19.9913 41.8908 12.8606 42.4646 12.2419C43.0384 11.6232 41.2316 11.3608 41.2316 11.3608" fill="#0F5965"/>
<path d="M39.01 23.4903C31.2985 29.4903 25.8447 50.4449 25.8447 50.4449C25.8447 50.4449 15.2191 32.298 9.14241 34.0346C3.06572 35.7713 14.6561 62.534 25.0961 63.2986C32.6877 63.8546 38.843 49.789 41.7316 41.6235C42.9871 38.2043 43.7627 34.6286 44.0365 30.9979C44.3145 27.0459 40.809 22.0894 39.0032 23.4913" fill="#F49564"/>
<g filter="url(#filter2_d)">
<path d="M41.7414 41.6304C42.2899 40.0901 42.7546 38.5215 43.1336 36.9314C41.7423 37.1239 40.3755 37.4632 39.0562 37.9436C38.2064 38.5418 30.9566 55.5032 28.356 55.0323C25.7553 54.5614 24.4545 57.4591 20.7829 56.3627C17.1114 55.2663 18.9476 51.9016 16.5759 48.302C14.8261 45.6441 10.288 42.6906 8.02827 41.325C10.1357 49.8419 17.8934 62.7797 25.1059 63.3074C32.6976 63.8635 38.8529 49.7978 41.7414 41.6323" fill="#FE602C"/>
</g>
<g filter="url(#filter3_d)">
<path d="M47.9448 6.18129C47.8743 5.41971 47.5297 4.70926 46.9746 4.181C46.4195 3.65275 45.6915 3.34235 44.9247 3.30707C42.7347 3.0359 39.6301 5.8925 40.0525 10.243C40.1593 11.2802 40.6053 12.2536 41.3219 13.0134C43.3164 15.0066 47.3996 9.0976 47.9448 6.18227" fill="#4CB4D4"/>
</g>
<path d="M50.9041 19.8535C57.6101 21.6991 63.5837 25.5562 68.0141 30.901C77.8812 42.8747 67.4983 54.3206 63.081 49.4033C60.8675 46.9393 50.9031 19.8555 50.9031 19.8555" fill="#FE602C"/>
<g filter="url(#filter4_d)">
<path d="M44.9208 3.30706C44.0646 3.25343 43.2192 3.52015 42.5501 4.05499C42.8443 4.11804 43.109 4.27681 43.3027 4.50628C44.2606 5.60271 43.9963 6.11079 44.5297 7.59685C44.9221 8.58308 45.3881 9.53861 45.9239 10.4554C46.8623 9.1711 47.5469 7.72059 47.941 6.18128C47.8704 5.4197 47.5258 4.70924 46.9707 4.18099C46.4157 3.65273 45.6876 3.34233 44.9208 3.30706Z" fill="#2E88BF"/>
</g>
<g filter="url(#filter5_d)">
<path d="M43.4313 11.3413C42.9046 11.4334 42.6865 10.8851 42.8634 10.3692C43.4813 8.56478 44.603 6.97341 46.0968 5.78184C48.5068 3.74268 50.8658 3.12495 51.5004 4.82735C52.1351 6.52976 49.3134 9.39124 48.0804 10.1245C46.5882 10.7192 45.028 11.1279 43.4352 11.3413" fill="#0F5965"/>
</g>
<g filter="url(#filter6_d)">
<path d="M67.5032 30.3009C63.1241 25.2626 57.347 21.6276 50.8992 19.8535C50.8992 19.8535 54.7692 30.3695 58.2197 38.8923C61.6083 37.3788 66.0334 34.6416 67.4993 30.3019" fill="#0F5965"/>
</g>
<g filter="url(#filter7_d)">
<path d="M46.3572 7.92297C46.3572 7.92297 48.5501 6.59061 49.6839 7.92297C53.3554 12.2392 47.7857 18.014 45.8118 17.549C39.1191 15.9719 42.4842 8.09918 46.3572 7.92297Z" fill="#0F5965"/>
</g>
<path d="M41.4122 45.5068C41.8288 44.1432 42.1983 42.8314 42.5677 41.778C42.9342 40.7263 43.2109 39.6456 43.3949 38.5475L37.78 30.0237L41.4122 45.5068Z" fill="#0F5965"/>
<path d="M33.5867 79.1107C33.9355 63.931 43.5314 50.0239 44.2359 46.4595C45.7371 38.8648 30.144 30.6533 39.01 23.4981C45.0268 18.6425 50.1396 17.5265 57.078 23.5696C61.3597 27.3014 59.9665 32.7238 60.2721 36.8638C61.1563 48.8071 68.2302 55.9779 72.6013 66.5047C73.1485 67.8214 33.5749 90.7828 33.5847 79.1116" fill="#BE6F9D"/>
<g filter="url(#filter8_d)">
<path d="M44.9944 21.8074C44.9944 21.8074 50.906 34.4075 52.3365 37.225C52.3365 37.225 50.627 22.0208 49.4706 20.6033L48.2818 21.0252L50.6918 31.5118L46.4553 21.3375L44.9944 21.8074Z" fill="#0F5965"/>
</g>
<g filter="url(#filter9_d)">
<path d="M44.6573 22.7326C43.7849 21.7948 42.5695 18.7522 45.1633 17.5784C46.977 16.758 50.1357 18.4301 49.4686 22.3959C48.9655 25.3905 45.4885 23.6264 44.6544 22.7326" fill="#4CB4D4"/>
</g>
<g filter="url(#filter10_d)">
<path d="M65.2032 180.347C65.2032 180.347 64.6334 183.186 64.8495 183.635C64.9369 183.812 67.0021 184.501 68.6282 185.356C69.3542 186.005 70.0626 186.84 69.2776 187.099C67.9316 187.544 60.0353 187.549 59.2936 186.21C59.0643 185.794 58.7536 185.428 58.3799 185.134C59.3471 183.703 59.9555 182.063 60.1542 180.349L65.2032 180.347Z" fill="#F49564"/>
</g>
<path d="M59.2956 186.208C60.0364 187.546 67.9336 187.541 69.2786 187.096C70.0646 186.837 69.3553 186.003 68.6292 185.353C71.0687 186.634 74.0791 188.29 74.1832 189.139C74.3571 190.56 59.9892 190.516 57.6017 189.139C56.353 188.419 57.2255 186.872 58.3818 185.126C58.7554 185.42 59.066 185.787 59.2956 186.203" fill="#0F5965"/>
<g filter="url(#filter11_d)">
<path d="M39.7214 180.347C39.7214 180.347 39.1515 183.186 39.3686 183.635C39.4551 183.812 41.5223 184.501 43.1473 185.356C43.8734 186.005 44.5817 186.84 43.7957 187.099C42.4497 187.544 34.5535 187.549 33.8117 186.21C33.5828 185.794 33.2721 185.428 32.898 185.134C33.8654 183.703 34.4739 182.063 34.6724 180.349L39.7214 180.347Z" fill="#F49564"/>
</g>
<path d="M33.8138 186.208C34.5555 187.546 42.4518 187.541 43.7968 187.096C44.5828 186.837 43.8734 186.003 43.1484 185.353C45.5869 186.634 48.5982 188.29 48.7024 189.139C48.8753 190.56 34.5074 190.516 32.1209 189.139C30.8732 188.419 31.7456 186.872 32.901 185.126C33.2748 185.42 33.5855 185.786 33.8147 186.203" fill="#0F5965"/>
<path d="M74.0966 70.628C73.443 68.5425 72.6507 66.5027 71.7249 64.5222C56.3578 74.255 42.7248 70.8061 35.4652 67.5149C34.3464 71.2852 33.7138 75.1821 33.5827 79.1116C33.5729 90.7798 40.7412 127.73 40.7412 127.73C38.261 131.867 36.4541 136.37 35.3876 141.071C29.6331 167.133 34.467 181.569 34.467 181.569L41.7895 181.631C43.7378 181.637 45.6368 181.02 47.2062 179.869C48.7756 178.719 49.9324 177.096 50.5061 175.241C62.5829 136.944 55.8204 85.0029 55.8204 85.0029C61.901 85.9653 61.5778 130.612 60.6621 147.615C60.0824 158.384 59.5961 182.736 59.5961 182.736H66.5177C68.3764 182.725 70.1869 182.146 71.7056 181.079C73.2243 180.011 74.3783 178.505 75.0123 176.764C80.2902 162.609 90.6732 124.147 74.0966 70.6309" fill="#0F5965"/>
<g filter="url(#filter12_d)">
<path d="M44.9512 14.7971L44.8755 21.1319C44.9389 21.4992 45.0977 21.8435 45.336 22.1306C45.5743 22.4178 45.884 22.6377 46.2341 22.7686C46.5843 22.8995 46.9627 22.9367 47.3318 22.8766C47.7009 22.8166 48.0477 22.6612 48.3379 22.4261C48.8085 22.0394 48.8369 21.7144 48.3928 20.6317L47.1785 15.1907L44.9512 14.7971Z" fill="#F49564"/>
</g>
<g filter="url(#filter13_d)">
<path d="M47.8927 18.4262C46.5643 18.0091 45.2302 15.9709 45.2302 15.9709H47.3445L47.8927 18.4262Z" fill="#0F5965"/>
</g>
<path d="M44.9443 10.7393L44.5729 13.171C44.4089 14.0913 44.607 15.0391 45.126 15.8175C45.6451 16.596 46.4453 17.1453 47.3603 17.3512C47.8008 17.4383 48.2551 17.4279 48.6912 17.3207C49.1272 17.2136 49.5343 17.0123 49.8837 16.7312C50.233 16.45 50.5162 16.0958 50.713 15.6936C50.9099 15.2914 51.0157 14.851 51.023 14.4035C51.2509 12.4123 49.8685 10.6933 49.3684 9.79266C48.2278 7.73685 45.5721 7.97572 44.9472 10.7403" fill="#F49564"/>
<g filter="url(#filter14_d)">
<path d="M44.7321 13.3678C44.6056 13.1942 44.4976 13.0078 44.4098 12.8118C44.2359 12.4408 43.896 11.9307 43.4834 12.4633C42.884 13.2396 43.9118 15.1642 44.8785 14.8774C45.5967 14.665 45.0573 13.8006 44.7321 13.3669" fill="#F49564"/>
</g>
<path d="M72.6024 66.4977C68.9328 57.6675 63.367 51.1966 61.1455 42.291C60.1417 46.3708 60.1725 50.6353 61.235 54.7003C63.5369 62.3019 65.329 67.8829 65.329 67.8829L66.5856 70.7522C70.3023 68.5545 72.7419 66.8315 72.6024 66.4977Z" fill="#0F5965"/>
<path d="M47.5756 16.5612C48.4602 16.5705 49.3285 16.3236 50.075 15.8505C50.4895 15.3959 50.8153 14.8684 51.0358 14.2949C51.0358 14.3321 51.0359 14.3674 51.029 14.4046C51.0218 14.852 50.916 15.2924 50.7191 15.6946C50.5222 16.0968 50.2391 16.451 49.8897 16.7322C49.5403 17.0134 49.1332 17.2146 48.6972 17.3218C48.2611 17.4289 47.8068 17.4393 47.3663 17.3522C46.81 17.2428 46.2896 16.9977 45.8516 16.639C45.4135 16.2803 45.0715 15.819 44.856 15.2964C45.5835 16.0259 46.5472 16.4744 47.5756 16.5622" fill="#FE602C"/>
<g filter="url(#filter15_d)">
<path d="M47.4633 13.5734C48.3826 13.4542 49.2863 13.2359 50.1583 12.9224C50.2383 13.1431 50.2494 13.3828 50.1901 13.6099C50.1308 13.8371 50.004 14.041 49.8262 14.195C49.425 14.3986 48.9625 14.4475 48.5273 14.3322C48.0921 14.217 47.715 13.9457 47.4682 13.5704" fill="white"/>
</g>
<g filter="url(#filter16_d)">
<path d="M44.1525 19.075L47.9488 21.8044L47.9724 18.748C48.706 19.5734 49.2088 20.5764 49.4304 21.6565C49.5004 21.9822 49.4947 22.3195 49.414 22.6426C49.3332 22.9658 49.1795 23.2663 48.9645 23.5213C48.7495 23.7763 48.4788 23.9789 48.1732 24.1138C47.8676 24.2487 47.5351 24.3123 47.2011 24.2997C45.9593 24.2997 43.5148 23.0153 44.1554 19.076" fill="#4CB4D4"/>
</g>
<g filter="url(#filter17_d)">
<path d="M54.78 31.3807C54.3481 29.738 53.786 28.132 53.099 26.578C51.6459 22.9774 47.4654 20.7179 46.7894 23.4835C46.0937 26.8141 46.0937 30.2518 46.7894 33.5824C48.1173 31.4376 48.8981 29.0016 49.0639 26.4869C50.3064 28.7586 52.3393 30.4994 54.78 31.3817" fill="#4CB4D4"/>
</g>
<g filter="url(#filter18_d)">
<path d="M53.9223 41.5374L50.2242 41.8311C50.1529 41.8359 50.0813 41.8266 50.0136 41.8037C49.9459 41.7808 49.8834 41.7448 49.8297 41.6978C49.776 41.6507 49.7322 41.5936 49.7007 41.5296C49.6693 41.4656 49.6509 41.3961 49.6465 41.325L49.1651 34.9304C49.1533 34.7879 49.1982 34.6465 49.2901 34.5366C49.382 34.4267 49.5135 34.3572 49.6563 34.3431L53.3544 34.0494C53.4257 34.0445 53.4973 34.0537 53.565 34.0765C53.6327 34.0994 53.6952 34.1354 53.7488 34.1825C53.8025 34.2295 53.8462 34.2868 53.8775 34.3508C53.9088 34.4148 53.927 34.4844 53.9311 34.5555L54.4135 40.9491C54.4253 41.0916 54.3804 41.233 54.2885 41.3429C54.1966 41.4528 54.0651 41.5223 53.9223 41.5364" fill="#FFE6E6"/>
</g>
<g filter="url(#filter19_d)">
<path d="M49.8576 35.2197L51.1722 35.1186L51.3082 36.8853L49.9936 36.9865L49.8576 35.2197Z" fill="#FFC399"/>
</g>
<g filter="url(#filter20_d)">
<path d="M50.015 37.4993L52.2327 37.3286L52.2748 37.8762L50.0574 38.0508L50.015 37.4993Z" fill="#FFC399"/>
</g>
<g filter="url(#filter21_d)">
<path d="M50.1033 38.5662L52.3211 38.3955L52.3632 38.9431L50.1457 39.1177L50.1033 38.5662Z" fill="#FFC399"/>
</g>
<g filter="url(#filter22_d)">
<path d="M53.9253 34.4478C53.9218 34.3898 53.9068 34.3331 53.8812 34.2809C53.8556 34.2287 53.82 34.1821 53.7762 34.1437C53.7325 34.1053 53.6815 34.0759 53.6264 34.0572C53.5712 34.0385 53.5128 34.0308 53.4547 34.0347L51.47 34.1913C51.6007 34.4693 51.7805 34.8462 52.0094 35.3171C52.5164 36.3587 52.8612 36.5055 52.7748 37.415C52.6883 38.3244 52.4585 39.5276 52.7886 39.9094C52.9851 40.1384 52.8613 40.8942 52.7768 41.6216L54.0196 41.5237C54.137 41.5125 54.2452 41.4557 54.3208 41.3655C54.3964 41.2753 54.4332 41.1591 54.4234 41.042L53.9253 34.4478Z" fill="#FFE1CC"/>
</g>
<path d="M69.0586 29.7459H56.0651C55.8206 29.7598 55.5868 29.851 55.3978 30.0062C55.2087 30.1615 55.0742 30.3727 55.0139 30.6093L50.0189 51.5169C49.9848 51.6166 49.9754 51.7229 49.9915 51.827C50.0076 51.9311 50.0487 52.0298 50.1114 52.1146C50.174 52.1994 50.2563 52.2678 50.3512 52.3141C50.4462 52.3604 50.5509 52.3831 50.6565 52.3803H63.6519C63.8964 52.3663 64.1301 52.275 64.3191 52.1198C64.5081 51.9645 64.6426 51.7534 64.7032 51.5169L69.6972 30.6093C69.7313 30.5096 69.7407 30.4031 69.7246 30.2989C69.7084 30.1947 69.6672 30.096 69.6045 30.0112C69.5417 29.9263 69.4593 29.8579 69.3642 29.8117C69.2692 29.7655 69.1643 29.7429 69.0586 29.7459Z" fill="#0F5965"/>
<path d="M65.22 40.3116C65.22 40.3116 55.4275 41.642 54.7781 46.0444C54.394 48.6474 56.9681 50.2382 60.5257 50.7698C62.9819 51.1369 65.9569 51.4453 68.5752 49.3993C73.6675 45.4257 70.6178 38.7521 65.22 40.3097" fill="#F49564"/>
<path d="M12.5566 36.6581C12.5566 36.6581 4.46582 37.8123 2.3741 35.826C0.282382 33.8397 -0.580243 33.1339 0.409123 33.0164C1.39849 32.8989 3.12863 34.1823 4.39997 34.289C5.67131 34.3957 5.55343 33.5685 5.18598 33.3101C4.81853 33.0516 3.12275 32.616 3.15615 31.8279C3.18955 31.0399 3.43321 31.4863 5.10835 31.4364C6.7835 31.3864 10.4138 31.6419 11.636 33.4295C12.3484 34.3483 12.6777 35.5054 12.5556 36.6601" fill="#F49564"/>
<path d="M70.4026 41.9788C70.323 42.5544 70.2061 43.2622 70.04 44.1041C69.5046 46.7982 61.627 47.2798 58.1706 46.4193C57.0522 46.0252 55.8237 46.0807 54.7457 46.574C54.7624 48.8648 57.2156 50.2784 60.5266 50.7727C62.9828 51.1399 65.9578 51.4472 68.5761 49.4022C71.4912 47.1271 71.7358 43.9709 70.4016 41.9768" fill="#FE602C"/>
<g filter="url(#filter23_d)">
<path d="M57.4358 45.1194C57.4358 45.1194 55.7567 43.9329 55.1937 43.417C54.6308 42.9011 54.2397 41.4914 53.7387 42.2736C53.0627 43.3299 54.3007 44.442 53.943 44.6133C53.7151 44.7239 51.9083 43.2672 51.5477 43.9594C50.3265 46.301 52.8967 48.5115 54.6976 48.6711C57.6519 48.9334 61.518 47.9858 57.4358 45.1194Z" fill="#F49564"/>
</g>
<path d="M74.1055 70.628C73.4519 68.5425 72.6595 66.5027 71.7338 64.5222C69.6965 65.8173 67.5561 66.9436 65.3339 67.8898C67.63 73.6089 70.5067 80.0289 72.9079 83.0441C77.7683 89.1518 73.9808 107.308 74.192 114.979C74.4032 122.649 67.5465 134.075 67.0739 147.849C66.6013 161.623 68.1546 164.754 67.0739 172.421C66.6206 175.837 66.4841 179.287 66.6662 182.727C68.5001 182.687 70.279 182.095 71.7694 181.029C73.2597 179.964 74.3919 178.474 75.0173 176.756C80.2952 162.6 90.6782 124.139 74.1016 70.6221" fill="#00494D"/>
<g filter="url(#filter24_d)">
<path d="M52.9516 110.901C56.0435 121.232 43.9579 123.736 43.0402 137.823C42.1226 151.909 40.8994 170.066 36.9213 174.448C35.8938 175.581 34.7656 176.618 33.5504 177.548C33.7683 178.904 34.0762 180.245 34.472 181.561L41.7945 181.623C43.7427 181.629 45.6414 181.012 47.2107 179.861C48.7799 178.711 49.9366 177.089 50.5101 175.233C62.5869 136.937 55.8244 84.9951 55.8244 84.9951C55.8244 84.9951 49.8577 100.571 52.9496 110.902" fill="#00494D"/>
</g>
<path d="M141.706 26.9833C144.776 30.5898 141.474 36.5702 136.805 39.8477C132.179 43.0959 126.391 47.4895 124.74 50.1885C121.032 56.2678 112.978 97.2498 108.168 98.4804C99.5216 100.693 108.883 56.0671 114.794 47.3788C120.706 38.6906 129.484 28.161 134.108 26.7503C137.361 25.7586 140.757 25.8643 141.706 26.9794" fill="#FE602C"/>
<path d="M141.707 26.9833C140.758 25.8673 137.362 25.7615 134.109 26.7542C131.055 27.6862 126.19 32.5976 121.533 38.3255C123.902 40.9496 126.499 43.3591 129.295 45.5257C131.605 43.5923 134.368 41.5609 136.807 39.8477C141.476 36.5712 144.777 30.5907 141.708 26.9842" fill="#EB6939"/>
<g filter="url(#filter25_d)">
<path d="M146.584 12.2362C146.584 12.2362 147.419 8.5025 150.532 8.16574C153.646 7.82897 157.149 9.72716 156.592 12.2362C156.035 14.7453 152.779 17.8887 154.529 19.1124C156.279 20.3361 160.858 21.6234 160.569 25.504C160.281 29.3846 155.478 29.5314 155.478 29.5314C155.478 29.5314 156.694 26.6837 154.86 26.0297C153.026 25.3758 148.779 24.3958 147.171 20.1188C146.207 17.6045 146.002 14.8641 146.582 12.2353" fill="#0F5965"/>
</g>
<path d="M146.584 12.24C146.845 11.23 147.334 10.2925 148.013 9.49894C153.07 8.62963 152.16 16.2312 154.652 16.2449C154.016 17.4608 153.675 18.5171 154.531 19.1143C156.285 20.337 160.86 21.6253 160.572 25.5059C160.283 29.3864 155.48 29.5333 155.48 29.5333C155.48 29.5333 156.697 26.6865 154.862 26.0316C153.028 25.3766 148.781 24.3977 147.173 20.1206C146.209 17.6064 146.004 14.866 146.584 12.2371" fill="#00494D"/>
<g filter="url(#filter26_d)">
<path d="M141.589 11.8113C141.589 11.8113 142.053 10.0942 144.694 10.1862C147.336 10.2782 152.226 17.4912 146.943 21.1064C141.661 24.7217 139.378 18.3859 139.395 16.4858C139.412 14.5856 139.198 11.9209 141.59 11.8113" fill="#0F5965"/>
</g>
<path d="M165.586 187.129C164.8 188.374 157.189 187.904 155.917 187.397C155.176 187.103 155.906 186.339 156.642 185.755C154.22 186.846 151.227 188.26 151.078 189.076C150.83 190.435 164.674 191.237 167.052 190.055C168.295 189.435 167.543 187.893 166.526 186.146C166.15 186.408 165.83 186.743 165.586 187.131" fill="#0F5965"/>
<path d="M119.57 58.0082C119.694 57.2093 121.498 55.317 123.846 54.4555C125.378 50.5554 127.031 46.156 127.846 43.3933C129.587 37.4765 136.665 26.8431 140.486 25.7966C141.553 25.4806 142.686 25.4589 143.764 25.7339C144.843 26.0089 145.826 26.5702 146.609 27.358L142.829 65.1839C144.458 65.599 146.077 67.0439 147.529 70.0905C153.536 82.6896 156.421 124.075 160.151 139.339C164.895 158.75 166.176 185.534 166.531 186.148C166.155 186.41 165.835 186.745 165.591 187.133C164.805 188.378 157.194 187.908 155.922 187.4C155.18 187.106 155.909 186.342 156.645 185.759C158.167 185.211 159.27 184.83 159.673 184.251C160.361 183.267 146.84 172.965 138.344 130.594C139.817 158.245 141.35 185.248 141.829 186.035C141.458 186.305 141.144 186.647 140.908 187.04C140.143 188.3 132.528 187.988 131.247 187.508C130.499 187.227 131.214 186.45 131.935 185.852C133.533 185.092 135.552 184.508 135.642 184.34C135.832 183.984 123.922 164.105 119.563 142.009C116.749 127.742 118.406 65.4659 119.563 58.015" fill="#F49564"/>
<path d="M140.908 187.035C140.144 188.296 132.528 187.983 131.247 187.503C130.498 187.223 131.214 186.445 131.935 185.847C129.536 186.989 126.569 188.464 126.433 189.282C126.213 190.646 140.07 191.163 142.423 189.927C143.654 189.281 142.87 187.756 141.821 186.03C141.449 186.3 141.136 186.642 140.9 187.035" fill="#0F5965"/>
<path d="M149.213 74.5918C148.76 73.0498 148.196 71.5422 147.526 70.0808C146.075 67.0372 144.455 65.5913 142.826 65.1753L146.606 27.3504C145.824 26.5618 144.841 25.9997 143.763 25.7238C142.685 25.448 141.552 25.4688 140.484 25.784C136.664 26.8315 129.585 37.464 127.844 43.3808C127.029 46.1483 125.375 50.5477 123.844 54.443C121.495 55.3044 119.692 57.1968 119.568 57.9956C119.287 59.7979 118.979 64.8111 118.71 71.5718C125.082 74.5214 137.019 78.5224 149.213 74.5821" fill="#FFA466"/>
<g filter="url(#filter27_d)">
<path d="M149.217 74.5918C148.764 73.0497 148.2 71.5421 147.53 70.0808C146.079 67.0372 144.459 65.5913 142.83 65.1752L146.61 27.3503C146.61 27.3503 134.774 41.6157 133.123 47.7018C131.762 52.7141 132.166 66.63 132.618 75.7979C138.172 76.6768 143.854 76.2643 149.222 74.5928" fill="#EB6939"/>
</g>
<g filter="url(#filter28_d)">
<path d="M165.506 175.098C164.607 165.388 163.007 151.027 160.15 139.338C156.787 125.577 154.11 90.586 149.215 74.6006C137.02 78.536 125.083 74.539 118.711 71.5894C117.87 92.7838 117.434 131.192 119.568 142.009C122.241 155.56 125.592 170.36 129.413 178.251C132.557 179.862 138.17 178.788 141.046 177.529C140.342 167.259 139.331 149.072 138.344 130.593C143.432 155.964 148.144 170.269 152.706 177.529C157.015 176.959 161.289 176.147 165.506 175.098Z" fill="#33A7AD"/>
</g>
<path d="M160.153 139.337C157.255 127.484 154.868 99.8791 151.133 82.2344C148.195 86.224 146.327 90.8938 145.704 95.8027C144.034 109.83 148.828 137.666 151.082 149.622C153.268 161.217 155.434 171.093 158.425 176.628C161.517 176.054 164.291 175.419 165.509 175.097C164.61 165.386 163.01 151.025 160.153 139.336" fill="#0F5965"/>
<g filter="url(#filter29_d)">
<path d="M146.673 29.8113C146.673 29.8113 147.526 27.7408 150.735 28.5152C153.943 29.2895 163.127 34.7276 162.917 39.0634C162.799 41.5245 162.991 46.1785 163.181 49.7409C163.326 52.4996 164.114 55.1866 165.483 57.5892C167.182 60.4854 168.284 63.6905 168.725 67.0165C169.494 73.9583 153.01 83.789 146.075 79.8047C139.139 75.8203 141.974 35.9797 146.676 29.8133" fill="#33A7AD"/>
</g>
<g filter="url(#filter30_d)">
<path d="M167.866 63.0077C159.82 64.4311 153.878 55.7458 152.494 50.388C151.254 45.5794 154.243 34.0012 155.199 30.5328C153.804 29.6718 152.304 28.9934 150.735 28.5142C147.524 27.7398 146.673 29.8103 146.673 29.8103C141.971 35.9777 139.135 75.8213 146.071 79.8017C153.006 83.7821 169.491 73.9564 168.722 67.0146C168.566 65.6545 168.279 64.3124 167.866 63.0067" fill="#0F5965"/>
</g>
<g filter="url(#filter31_d)">
<path d="M99.6757 13.6028L103.1 15.2758C103.334 15.336 103.535 15.4852 103.66 15.6916C103.784 15.8979 103.823 16.1448 103.767 16.3791L101.582 26.4496C101.557 26.566 101.509 26.6762 101.442 26.774C101.374 26.8717 101.287 26.9549 101.186 27.0188C101.085 27.0826 100.973 27.1257 100.855 27.1457C100.738 27.1656 100.617 27.162 100.501 27.1349L97.0771 25.4619C96.8428 25.402 96.6416 25.2527 96.5168 25.0463C96.392 24.8399 96.3536 24.5929 96.4099 24.3586L98.595 14.2881C98.6196 14.1717 98.6672 14.0615 98.7352 13.9637C98.8031 13.866 98.89 13.7828 98.9907 13.7189C99.0914 13.6551 99.2038 13.6119 99.3215 13.592C99.4391 13.5721 99.5595 13.5757 99.6757 13.6028Z" fill="#0F5965"/>
</g>
<g filter="url(#filter32_d)">
<path d="M100.528 17.3592C100.587 17.1418 100.548 16.9411 100.442 16.9098C100.336 16.8785 100.201 17.0322 100.143 17.2495C100.084 17.4668 100.122 17.6675 100.229 17.6979C100.336 17.7282 100.47 17.5765 100.524 17.3592" fill="white"/>
</g>
<path d="M129.041 37.2249C129.324 36.7515 129.489 36.2172 129.522 35.6671C129.554 35.117 129.453 34.5671 129.228 34.0639C128.823 33.3194 128.676 32.4625 128.81 31.6262C128.944 30.79 129.351 30.0212 129.969 29.4393C133.173 26.2567 140.07 24.6522 140.07 24.6522C142.987 23.8495 145.911 25.0164 148.617 26.8059C158.579 33.4011 143.939 43.3503 144.958 50.7522C144.982 50.9294 152.904 59.3552 155.274 67.74C159.975 84.3822 161.199 96.8806 165.658 113.643C165.928 114.654 165.88 115.723 165.52 116.706C165.16 117.688 164.505 118.537 163.645 119.136C163.464 119.259 163.282 119.382 163.098 119.502C154.814 124.929 143.829 119.478 142.689 109.482C139.807 84.2178 135.702 48.8383 137.172 44.3087C139.352 37.596 146.34 29.8955 145.72 27.687C145.1 25.4784 143.804 25.7927 143.804 25.7927C140.773 26.8179 138.127 28.7382 136.218 31.2983C133.55 35.0918 115.979 61.0204 120.449 115.391C120.557 116.419 120.391 117.457 119.97 118.402C119.549 119.347 118.886 120.165 118.047 120.774C117.209 121.383 116.225 121.762 115.193 121.874C114.162 121.985 113.119 121.824 112.169 121.407C109.092 106.97 109.001 92.0583 111.902 77.5843C114.803 63.1103 120.635 49.3776 129.041 37.2249Z" fill="#00494D"/>
<g filter="url(#filter33_d)">
<path d="M146.074 20.3115L145.766 26.9185C145.711 28.0061 142.932 30.6385 141.336 29.1593C140.869 28.7266 141.602 27.2729 142.13 26.1725L143.727 20.5788L146.074 20.3115Z" fill="#F49564"/>
</g>
<g filter="url(#filter34_d)">
<path d="M142.773 23.8975C144.182 23.5481 145.697 21.5079 145.697 21.5079L143.493 21.3728L142.773 23.8975Z" fill="#0F5965"/>
</g>
<path d="M146.317 16.0757L146.557 18.6337C146.673 19.602 146.409 20.5774 145.82 21.3563C145.231 22.1352 144.363 22.6574 143.397 22.8138C142.933 22.8753 142.46 22.8348 142.012 22.6949C141.565 22.5551 141.153 22.3195 140.807 22.0045C140.461 21.6895 140.188 21.3027 140.007 20.8715C139.827 20.4402 139.743 19.9748 139.762 19.5079C139.646 17.4169 141.192 15.7135 141.768 14.8089C143.081 12.7414 145.836 13.1574 146.321 16.0816" fill="#F49564"/>
<g filter="url(#filter35_d)">
<path d="M146.1 18.5153C146.19 18.3088 146.258 18.0936 146.303 17.8731C146.395 17.4541 146.627 16.8531 147.166 17.2995C147.952 17.9485 147.34 20.1521 146.291 20.0885C145.512 20.0415 145.866 19.0312 146.094 18.5153" fill="#F49564"/>
</g>
<g filter="url(#filter36_d)">
<path d="M140.946 17.41C140.931 17.185 140.939 16.9589 140.971 16.7355C141.024 16.3097 141.007 15.6636 140.35 15.8936C139.395 16.2274 139.232 18.5123 140.239 18.8207C140.987 19.0488 140.992 17.9768 140.945 17.41" fill="#F49564"/>
</g>
<g filter="url(#filter37_d)">
<path d="M143.532 19.4157C142.692 19.5283 141.841 19.3217 141.147 18.8372C141.147 18.8372 141.504 20.8753 143.532 19.4157Z" fill="white"/>
</g>
<g filter="url(#filter38_d)">
<path d="M143.224 21.9758C142.3 21.9286 141.41 21.6161 140.661 21.0761C140.257 20.576 139.95 20.0058 139.754 19.3943C139.754 19.4325 139.754 19.4697 139.754 19.5088C139.735 19.9757 139.819 20.441 139.999 20.8723C140.18 21.3035 140.453 21.6902 140.799 22.0051C141.146 22.32 141.557 22.5556 142.005 22.6953C142.452 22.835 142.925 22.8754 143.39 22.8138C143.976 22.7353 144.533 22.5128 145.012 22.1665C145.49 21.8201 145.875 21.3606 146.131 20.8294C145.328 21.544 144.295 21.9503 143.219 21.9758" fill="#FE602C"/>
</g>
<g filter="url(#filter39_d)">
<path d="M142.337 13.076C142.337 13.076 141.65 13.7701 142.436 14.9938C142.95 15.7946 145.506 17.1857 146.665 16.893C147.825 16.6002 145.81 10.9213 142.335 13.075" fill="#0F5965"/>
</g>
<path d="M128.624 86.8228L127.936 86.2109C127.936 86.2109 125.218 115.34 127.936 130.791C129.587 140.176 134.749 168.832 136.545 178.795C138.088 178.55 139.597 178.123 141.039 177.522C140.334 167.253 139.324 149.066 138.337 130.586C138.337 130.586 135.08 102.16 133.957 98.4763C133.414 96.7005 132.778 94.4851 132.261 92.6642C131.627 90.4111 130.364 88.3835 128.62 86.8169" fill="#0F5965"/>
<g filter="url(#filter40_d)">
<path d="M108.646 94.6897C109.65 96.8796 109.858 99.3492 109.235 101.675C108.937 102.504 108.842 103.392 108.958 104.265C109.491 105.774 107.518 105.048 107.248 102.968C107.118 101.975 106.616 101.144 106.422 102.076C106.229 103.008 107.468 108.404 105.931 106.873C104.567 105.477 103.726 103.656 103.55 101.716C103.374 99.776 103.874 97.8345 104.964 96.2178C105.94 94.629 107.954 93.1693 108.646 94.6936" fill="#FE602C"/>
</g>
<path d="M152.84 30.0562C152.84 30.0562 147.447 28.9794 145.813 31.3377C144.179 33.696 139.583 42.9119 141.385 50.8904C143.187 58.8689 155.988 63.0206 157.527 63.0206C159.065 63.0206 161.959 67.8175 160.582 68.9609C159.206 70.1043 143.719 68.4019 138.782 60.3011C133.046 50.8904 136.452 39.2858 138.849 34.58C141.992 28.3949 149.294 23.74 152.841 30.0562" fill="#33A7AD"/>
<path d="M150.257 35.6185C148.768 38.6973 142.776 49.41 123.739 50.8902C103.794 52.4428 96.1162 22.6326 102.797 23.173C106.011 23.4325 110.98 33.0869 120.986 39.5265C127.394 43.6518 140.128 33.0448 146.011 30.5093C150.382 28.6268 151.501 33.0439 150.257 35.6156" fill="#F49564"/>
<path d="M150.145 35.8487C145.451 36.9794 137.609 40.8051 137.609 40.8051C137.609 40.8051 129.48 48.2814 122.619 46.6358C115.757 44.9902 115.141 42.2696 111.713 41.1967C108.285 40.1238 104.299 34.8981 104.23 30.0611C104.204 28.8663 103.933 27.6894 103.433 26.603C102.933 25.5165 102.216 24.5435 101.324 23.7439C97.6213 27.8222 105.615 52.3069 123.738 50.8952C142.338 49.4464 148.483 39.1908 150.144 35.8497" fill="#FE602C"/>
<path d="M103.445 23.1788C103.344 22.2446 103.291 21.3059 103.287 20.3663C103.339 19.636 103.733 17.9189 102.763 18.846C101.792 19.773 102.29 21.075 101.32 20.8792C100.351 20.6835 98.1765 18.8146 98.1205 17.7838C98.0645 16.753 96.6252 17.9453 96.861 20.1724C97.0968 22.3996 98.6982 25.4324 101.425 25.3257C104.151 25.219 103.445 23.1788 103.445 23.1788Z" fill="#F49564"/>
<path d="M146.01 30.5122C143.785 31.4706 140.58 33.5842 137.107 35.6184C137.39 38.056 137.164 44.3096 140.698 47.3845C147.067 43.6322 149.337 37.5205 150.256 35.6184C151.5 33.0457 150.38 28.6297 146.011 30.5122" fill="#FFA466"/>
<path d="M147.525 35.8269C146.542 37.9023 142.21 40.0502 139.132 40.4075C138.607 40.4619 138.094 40.5939 137.608 40.7991C138.001 43.1897 138.81 45.7379 140.699 47.3816C147.069 43.6292 149.338 37.5176 150.256 35.6155C150.627 34.8732 150.791 34.045 150.729 33.218C150.667 32.391 150.383 31.5959 149.905 30.9165C149.169 32.4163 148.119 34.5641 147.526 35.8211" fill="#EB6939"/>
<g filter="url(#filter41_d)">
<path d="M219.419 24.0424C219.419 24.0424 231.928 23.7311 235.418 26.9871C238.431 29.7958 237.869 39.0489 237.658 41.5364C237.626 41.9299 237.444 42.2964 237.15 42.5613C236.988 42.709 236.858 42.8888 236.77 43.0892C236.681 43.2896 236.635 43.5063 236.635 43.7253C236.635 43.9444 236.681 44.161 236.77 44.3614C236.858 44.5618 236.988 44.7416 237.15 44.8893L238.624 46.208C238.813 46.3763 238.957 46.5885 239.044 46.8257C240.218 50.0278 248.574 73.5101 243.563 79.9144C238.182 86.7925 223.637 85.3858 219.419 81.7744C215.202 78.163 219.419 24.0424 219.419 24.0424Z" fill="#0F5965"/>
</g>
<path d="M239.044 46.8227C238.957 46.5856 238.814 46.3734 238.625 46.205L237.151 44.8864C236.989 44.7387 236.859 44.5589 236.771 44.3585C236.682 44.1581 236.636 43.9414 236.636 43.7224C236.636 43.5033 236.682 43.2867 236.771 43.0863C236.859 42.8859 236.989 42.7061 237.151 42.5584C237.445 42.2934 237.627 41.927 237.659 41.5334C237.87 39.0459 238.432 29.7928 235.419 26.9832C235.25 26.8293 235.069 26.6879 234.879 26.5603C234.512 30.2363 233.602 35.1937 231.349 37.2309C229.148 39.2231 223.147 38.5692 218.515 37.6744C217.568 53.9632 216.579 79.3348 219.421 81.7685C223.639 85.3809 238.187 86.7886 243.565 79.9085C248.576 73.5032 240.22 50.021 239.046 46.8198" fill="#00494D"/>
<path d="M166.176 56.9097C166.176 56.9097 178.8 63.4002 191.196 49.8613C201.598 38.4995 195.138 25.7261 195.138 25.7261C195.138 25.7261 157.376 42.8098 166.176 56.9117" fill="#FE602C"/>
<path d="M188.317 14.8363C188.317 14.8363 161.08 35.2847 161.315 49.3044C161.55 63.324 176.305 55.554 181.921 45.3787C187.537 35.2035 191.956 19.9934 192.206 18.2245C192.455 16.4555 191.829 13.0556 188.318 14.8353" fill="#F49564"/>
<g filter="url(#filter42_d)">
<path d="M205.03 10.2264C205.03 10.2264 203.768 7.87693 205.008 6.00027C207.304 2.52498 211.15 5.0086 212.37 6.50346C213.078 7.28786 213.594 8.22507 213.877 9.24151C214.16 10.2579 214.202 11.3259 214.001 12.3615C213.633 13.8196 213.126 15.2394 212.487 16.6014C212.487 16.6014 206.152 13.6753 205.03 10.2264Z" fill="#00494D"/>
</g>
<path d="M177.876 185.384C176.862 183.734 176.283 181.856 176.192 179.923H170.246C170.463 181.195 170.254 182.503 169.65 183.643C169.212 184.354 167.938 184.885 166.178 185.64C163.395 187.103 159.958 188.988 159.84 189.962C159.644 191.584 176.04 191.533 178.765 189.962C180.19 189.139 179.193 187.375 177.875 185.385" fill="#0F5965"/>
<path d="M223.206 185.384C222.193 183.734 221.614 181.856 221.522 179.923H215.574C215.792 181.195 215.582 182.503 214.977 183.643C214.541 184.354 213.265 184.885 211.508 185.64C208.723 187.103 205.288 188.988 205.169 189.962C204.972 191.584 221.367 191.533 224.093 189.962C225.518 189.139 224.522 187.375 223.203 185.385" fill="#0F5965"/>
<path d="M228.661 86.8345C227.384 76.3802 225.24 73.4688 224.299 67.6049C212.884 69.4649 195.261 66.4673 187.397 65.459C182.906 75.5285 172.029 97.0793 169.658 132.34C169.166 139.649 168.014 169.519 167.63 179.674C167.582 180.641 167.885 181.593 168.484 182.356C169.083 183.119 169.938 183.642 170.892 183.828C176.571 184.872 187.47 185.826 188.26 177.994C190.738 153.398 186.565 134.724 187.396 127.417C188.014 121.985 202.169 95.138 202.169 95.138C202.169 95.138 201.9 130.968 207.942 161.034C209.045 167.135 209.307 173.358 208.722 179.53C208.657 180.188 208.728 180.853 208.93 181.483C209.132 182.113 209.461 182.695 209.898 183.194C210.334 183.692 210.868 184.097 211.467 184.382C212.066 184.667 212.717 184.827 213.38 184.853C219.404 184.999 228.642 184.461 230.216 179.924C232.167 174.304 223.687 137.025 222.791 129.41C221.878 121.642 229.865 96.7278 228.662 86.8345" fill="#FFA466"/>
<path d="M222.792 129.411C221.878 121.643 229.871 96.7289 228.662 86.8356C227.385 76.3813 225.241 73.4699 224.301 67.606C219.845 68.2186 215.337 68.3757 210.849 68.0749C214.129 75.4621 217.368 83.8361 217.969 89.2203C219.253 100.749 213.685 121.82 215.498 130.957C217.31 140.095 214.696 144.869 210.629 146.99C208.924 147.878 207.025 146.926 205.392 145.521C206.079 150.723 206.923 155.961 207.946 161.035C209.048 167.136 209.311 173.359 208.726 179.531C208.661 180.189 208.732 180.854 208.934 181.484C209.136 182.114 209.465 182.696 209.901 183.195C210.338 183.693 210.872 184.098 211.471 184.383C212.07 184.668 212.721 184.828 213.384 184.854C219.408 185 228.646 184.457 230.22 179.925C232.17 174.303 223.691 137.025 222.795 129.41" fill="#F26939"/>
<path d="M201.022 92.5438L181.531 78.9128C180.437 81.6539 179.308 84.6936 178.19 88.0308C181.266 90.1258 187.875 92.9344 201.015 92.5438" fill="#0F5965"/>
<path d="M223.439 57.5158C224.162 50.9479 231.446 42.6356 230.423 34.0032C229.139 23.1661 202.978 15.87 192.172 27.1319C187.399 32.106 182.896 47.2318 183.069 67.1771C183.098 70.1282 182.71 73.0687 181.917 75.9123L179.813 83.4268C179.813 83.4268 187.687 93.8037 217.552 93.8037C225.108 93.8037 230.514 89.3925 229.573 85.8673C228.249 80.9079 222.924 62.1766 223.439 57.5128" fill="#33A7AD"/>
<path d="M229.574 85.8692C228.249 80.9088 222.924 62.1785 223.439 57.5147C224.162 50.9469 231.447 42.6346 230.425 34.0022C229.867 29.3032 224.644 25.2797 218.021 23.1357C215.745 29.917 208.738 55.5969 206.791 58.4711C204.802 61.408 206.367 83.2446 210.301 93.5863C212.561 93.7283 214.974 93.8066 217.553 93.8066C225.109 93.8066 230.515 89.3954 229.575 85.8702" fill="#0F5965"/>
<g filter="url(#filter43_d)">
<path d="M207.482 22.9419C207.482 22.9419 203.9 29.9199 199.497 31.1573C195.093 32.3947 190.889 25.8093 194.879 18.8274C194.879 18.8274 193.364 29.9738 198.587 26.9655C203.81 23.9571 205.298 20.1128 207.738 20.336C210.177 20.5592 207.478 22.9419 207.478 22.9419" fill="#00494D"/>
</g>
<g filter="url(#filter44_d)">
<path d="M211.847 13.782L213.802 22.3821C213.703 23.5931 208.932 25.6479 207.207 23.9367C206.703 23.4355 207.549 16.0395 207.549 16.0395L211.847 13.782Z" fill="#F49564"/>
</g>
<path d="M217.69 51.9122C218.761 56.4441 221.589 60.3692 225.556 62.8286C226.19 63.2361 226.72 63.7838 227.107 64.429C227.494 65.0742 227.726 65.7995 227.785 66.5486L228.073 69.7116C228.105 69.981 228.066 70.254 227.96 70.5039C227.855 70.7538 227.685 70.972 227.469 71.1372C227.254 71.3024 226.998 71.4088 226.729 71.4462C226.459 71.4836 226.184 71.4506 225.931 71.3504C221.926 69.697 214.05 65.6215 211.934 58.4908C209.061 48.807 217.691 51.9113 217.691 51.9113" fill="#00494D"/>
<g filter="url(#filter45_d)">
<path d="M207.108 20.9449C207.15 20.2225 207.212 19.4559 207.275 18.7491L210.781 18.3105C209.936 19.621 208.623 20.5627 207.108 20.9449Z" fill="#00494D"/>
</g>
<g filter="url(#filter46_d)">
<path d="M210.329 10.519L211.723 15.3736C211.891 16.1519 211.751 16.9647 211.332 17.6425C210.913 18.3203 210.247 18.8107 209.474 19.0114C208.262 19.3051 206.999 19.3168 205.782 19.0457C204.444 18.8381 203.794 17.497 203.849 15.6967C203.943 13.7795 204.358 11.8914 205.077 10.1107C206.09 7.56056 209.195 7.42253 210.33 10.518" fill="#F49564"/>
</g>
<path d="M213.075 19.1887C213.747 19.5096 214.341 19.9721 214.816 20.5443C215.291 21.1165 215.635 21.7846 215.826 22.5025C216.3 24.803 213.545 32.2969 206.885 32.6954C200.225 33.0938 202.993 29.4266 202.993 29.4266C202.993 29.4266 202.949 30.8403 204.936 31.0174C206.922 31.1946 213.378 23.7595 213.071 19.1887" fill="#00494D"/>
<g filter="url(#filter47_d)">
<path d="M207.167 13.917C206.279 14.0691 205.372 14.0691 204.484 13.917C204.484 13.917 204.409 14.9615 205.019 15.3443C205.629 15.7271 206.757 15.1554 207.167 13.918" fill="white"/>
</g>
<g filter="url(#filter48_d)">
<path d="M210.599 12.7532C210.727 12.4703 210.826 12.1751 210.894 11.8721C211.033 11.2935 211.372 10.4673 212.109 11.1007C213.182 12.0228 212.274 15.0645 210.819 14.946C209.738 14.8589 210.257 13.4678 210.596 12.7571" fill="#F49564"/>
</g>
<g filter="url(#filter49_d)">
<path d="M223.629 24.5955C223.629 24.5955 219.962 25.2807 215.234 31.7223C210.506 38.1638 211.178 43.2015 211.178 43.2015L215.126 42.2509C215.126 42.2509 224.876 27.5157 229.077 27.8603C227.539 26.3663 225.673 25.2487 223.628 24.5955" fill="#00494D"/>
</g>
<g filter="url(#filter50_d)">
<path d="M191.655 19.2906L200.438 19.3738C200.954 19.3715 201.447 19.1653 201.81 18.8005C202.173 18.4358 202.376 17.9423 202.374 17.4286L202.416 12.8275C202.421 12.5761 202.377 12.326 202.286 12.0916C202.195 11.8571 202.058 11.6429 201.884 11.4611C201.71 11.2793 201.501 11.1335 201.27 11.032C201.039 10.9305 200.79 10.8753 200.538 10.8696L191.708 10.7864C191.455 10.7873 191.206 10.8377 190.973 10.9348C190.74 11.0318 190.529 11.1737 190.351 11.3521C190.173 11.5306 190.033 11.7422 189.937 11.9748C189.841 12.2075 189.793 12.4567 189.794 12.7081L189.752 17.3092C189.742 17.823 189.936 18.3202 190.292 18.6917C190.649 19.0631 191.139 19.2785 191.655 19.2906Z" fill="#00494D"/>
</g>
<g filter="url(#filter51_d)">
<path d="M191.417 15.1612C191.425 15.6692 191.584 16.1634 191.873 16.582C192.162 17.0006 192.569 17.325 193.042 17.5146C193.515 17.7043 194.034 17.7508 194.533 17.6484C195.033 17.5459 195.491 17.2991 195.85 16.9387C196.209 16.5783 196.454 16.1203 196.554 15.622C196.654 15.1237 196.604 14.6072 196.41 14.137C196.217 13.6669 195.889 13.264 195.467 12.9786C195.045 12.6933 194.548 12.5382 194.038 12.5327C193.341 12.5361 192.674 12.8147 192.184 13.3075C191.693 13.8003 191.419 14.467 191.421 15.1612" fill="#4337F0"/>
</g>
<g filter="url(#filter52_d)">
<path d="M194.038 12.5299C194.568 12.5208 195.088 12.6693 195.533 12.9565C195.977 13.2436 196.326 13.6563 196.534 14.1419C196.742 14.6275 196.8 15.1638 196.7 15.6823C196.601 16.2008 196.348 16.678 195.975 17.0527C195.602 17.4275 195.125 17.6828 194.605 17.7861C194.086 17.8894 193.547 17.836 193.058 17.6326C192.569 17.4292 192.152 17.0852 191.86 16.6445C191.569 16.2037 191.416 15.6863 191.421 15.1584C191.419 14.4642 191.693 13.7976 192.184 13.3048C192.674 12.812 193.341 12.5333 194.038 12.5299ZM194.043 11.9954C193.407 11.9729 192.779 12.1398 192.238 12.4748C191.698 12.8099 191.27 13.2979 191.01 13.8764C190.749 14.4549 190.668 15.0977 190.776 15.7226C190.883 16.3476 191.176 16.9262 191.616 17.3847C192.055 17.8431 192.622 18.1605 193.244 18.2964C193.865 18.4322 194.514 18.3802 195.105 18.1471C195.697 17.914 196.206 17.5104 196.566 16.9878C196.927 16.4652 197.123 15.8473 197.129 15.2133C197.147 14.3789 196.833 13.5715 196.254 12.9681C195.676 12.3648 194.88 12.0149 194.043 11.9954Z" fill="#38246B"/>
</g>
<g filter="url(#filter53_d)">
<path d="M190.905 11.8348L192.6 11.8505L192.611 10.6895C192.611 10.5878 192.572 10.4901 192.501 10.417C192.43 10.3439 192.333 10.3012 192.231 10.2979L191.302 10.2891C191.199 10.2909 191.1 10.3329 191.028 10.4061C190.956 10.4794 190.916 10.578 190.916 10.6806L190.905 11.8348Z" fill="#00494D"/>
</g>
<g filter="url(#filter54_d)">
<path d="M194.061 8.33984L197.118 8.36824C197.239 8.37091 197.358 8.39724 197.468 8.44572C197.578 8.49421 197.678 8.56389 197.762 8.6508C197.845 8.73771 197.91 8.84015 197.954 8.95224C197.998 9.06434 198.019 9.18391 198.016 9.30412L197.992 11.9179L193.124 11.8719L193.148 9.25811C193.147 9.13803 193.17 9.01904 193.216 8.90791C193.262 8.79678 193.329 8.69569 193.414 8.61042C193.499 8.52516 193.599 8.45737 193.711 8.41095C193.822 8.36452 193.941 8.34036 194.061 8.33984Z" fill="#00494D"/>
</g>
<g filter="url(#filter55_d)">
<path d="M193.671 9.25706C193.671 9.15421 193.711 9.0555 193.783 8.98223C193.856 8.90896 193.954 8.86702 194.058 8.86548L197.114 8.89485C197.216 8.89815 197.313 8.94086 197.384 9.01394C197.455 9.08703 197.494 9.18474 197.494 9.28642L197.486 10.1293L193.663 10.0931L193.671 9.25706Z" fill="#4337F0"/>
</g>
<g filter="url(#filter56_d)">
<path d="M194.727 13.0976C194.727 13.0976 196.095 13.3697 196.214 14.5739C196.333 15.778 195.232 16.3184 194.815 15.9307C194.398 15.543 194.422 13.8749 193.776 13.6164C193.129 13.358 193.99 12.798 194.727 13.0986" fill="#6464FF"/>
</g>
<path d="M209.05 61.3631C209.05 61.3631 220.545 62.7787 229.427 42.8608C229.427 42.8608 233.658 31.4609 226.113 29.7301C219.213 28.1461 207.631 47.7321 205.624 51.3934C203.618 55.0547 203.975 60.809 209.05 61.3592" fill="#F49564"/>
<path d="M226.427 29.8201C228.027 31.5107 226.935 35.1838 226.82 37.2357C226.679 39.7614 223.435 43.3678 220.966 44.382C218.497 45.3962 214.973 41.4961 211.869 45.6048C210.88 46.9156 207.526 53.7458 204.526 55.036C204.253 58.0267 205.488 60.9773 209.05 61.363C209.05 61.363 220.545 62.7786 229.428 42.8656C229.428 42.8656 233.529 31.8034 226.426 29.822" fill="#FE602C"/>
<path d="M189.078 104.591C185.971 112.805 188.561 111.083 185.971 115.849C183.381 120.615 178.978 132.146 173.15 133.47C167.322 134.795 173.668 154.67 173.15 164.739C172.895 169.71 170.367 172.095 167.872 173.239C167.774 175.79 167.69 177.998 167.627 179.67C167.579 180.637 167.883 181.589 168.482 182.352C169.081 183.115 169.935 183.637 170.889 183.824C176.568 184.868 187.468 185.822 188.257 177.989C190.735 153.393 186.561 134.719 187.393 127.412C188.011 121.98 202.166 95.1343 202.166 95.1343C202.166 95.1343 192.186 96.3707 189.077 104.585" fill="#EB6939"/>
<g filter="url(#filter57_d)">
<path d="M208.933 18.1833C207.702 18.4388 206.419 18.2025 205.36 17.5255C205.164 17.4068 204.946 17.3283 204.719 17.2947C204.492 17.261 204.26 17.273 204.038 17.3297C204.123 17.756 204.335 18.1471 204.645 18.4527C204.956 18.7583 205.351 18.9645 205.78 19.0448C206.996 19.316 208.259 19.3042 209.471 19.0105C210.005 18.8743 210.492 18.596 210.88 18.2055C211.268 17.815 211.542 17.3269 211.674 16.7932C210.921 17.5206 209.966 18.0057 208.933 18.1853" fill="#FE602C"/>
</g>
<path d="M204.599 15.3159C204.374 15.0423 204.088 14.8246 203.764 14.6798C203.44 14.5349 203.087 14.467 202.732 14.4814C202.377 14.4957 202.031 14.5919 201.719 14.7623C201.408 14.9328 201.141 15.1729 200.939 15.4637C199.348 17.9731 198.523 20.8886 198.562 23.8563C198.306 31.5656 194.86 58.9861 207.384 61.3689C218.766 63.5354 211.707 23.6742 204.599 15.3169" fill="#F49564"/>
<path d="M205.472 16.4888C205.472 16.4888 204.703 11.5225 203.777 10.8568C202.852 10.1911 201.434 10.2518 200.322 10.153C199.21 10.0541 198.296 10.4281 198.927 10.8656C199.557 11.3032 200.972 11.7878 201.034 12.1637C201.096 12.5397 200.411 15.5558 201.979 16.6268C203.547 17.6978 205.472 16.4878 205.472 16.4878" fill="#F49564"/>
<path d="M210.039 54.2804C208.887 54.6083 205.837 51.9475 202.687 48.1815C199.537 44.4154 200.2 43.5451 200.382 37.8143C200.567 34.5991 199.843 31.3965 198.292 28.571C197.628 39.3112 196.761 59.3435 207.384 61.3661C211.216 62.0954 212.957 58.0562 213.309 52.066C212.318 52.9397 211.22 53.685 210.041 54.2843" fill="#FE602C"/>
<defs>
<filter id="filter0_d" x="107.408" y="59.2412" width="23.2784" height="23.049" filterUnits="userSpaceOnUse" color-interpolation-filters="sRGB">
<feFlood flood-opacity="0" result="BackgroundImageFix"/>
<feColorMatrix in="SourceAlpha" type="matrix" values="0 0 0 0 0 0 0 0 0 0 0 0 0 0 0 0 0 0 127 0"/>
<feOffset dy="3"/>
<feGaussianBlur stdDeviation="3"/>
<feColorMatrix type="matrix" values="0 0 0 0 0 0 0 0 0 0 0 0 0 0 0 0 0 0 0.161 0"/>
<feBlend mode="normal" in2="BackgroundImageFix" result="effect1_dropShadow"/>
<feBlend mode="normal" in="SourceGraphic" in2="effect1_dropShadow" result="shape"/>
</filter>
<filter id="filter1_d" x="57.9977" y="107.559" width="23.2786" height="23.051" filterUnits="userSpaceOnUse" color-interpolation-filters="sRGB">
<feFlood flood-opacity="0" result="BackgroundImageFix"/>
<feColorMatrix in="SourceAlpha" type="matrix" values="0 0 0 0 0 0 0 0 0 0 0 0 0 0 0 0 0 0 127 0"/>
<feOffset dy="3"/>
<feGaussianBlur stdDeviation="3"/>
<feColorMatrix type="matrix" values="0 0 0 0 0 0 0 0 0 0 0 0 0 0 0 0 0 0 0.161 0"/>
<feBlend mode="normal" in2="BackgroundImageFix" result="effect1_dropShadow"/>
<feBlend mode="normal" in="SourceGraphic" in2="effect1_dropShadow" result="shape"/>
</filter>
<filter id="filter2_d" x="2.02827" y="33.9314" width="47.1053" height="38.392" filterUnits="userSpaceOnUse" color-interpolation-filters="sRGB">
<feFlood flood-opacity="0" result="BackgroundImageFix"/>
<feColorMatrix in="SourceAlpha" type="matrix" values="0 0 0 0 0 0 0 0 0 0 0 0 0 0 0 0 0 0 127 0"/>
<feOffset dy="3"/>
<feGaussianBlur stdDeviation="3"/>
<feColorMatrix type="matrix" values="0 0 0 0 0 0 0 0 0 0 0 0 0 0 0 0 0 0 0.161 0"/>
<feBlend mode="normal" in2="BackgroundImageFix" result="effect1_dropShadow"/>
<feBlend mode="normal" in="SourceGraphic" in2="effect1_dropShadow" result="shape"/>
</filter>
<filter id="filter3_d" x="34.0136" y="0.289307" width="19.9313" height="22.1265" filterUnits="userSpaceOnUse" color-interpolation-filters="sRGB">
<feFlood flood-opacity="0" result="BackgroundImageFix"/>
<feColorMatrix in="SourceAlpha" type="matrix" values="0 0 0 0 0 0 0 0 0 0 0 0 0 0 0 0 0 0 127 0"/>
<feOffset dy="3"/>
<feGaussianBlur stdDeviation="3"/>
<feColorMatrix type="matrix" values="0 0 0 0 0 0 0 0 0 0 0 0 0 0 0 0 0 0 0.161 0"/>
<feBlend mode="normal" in2="BackgroundImageFix" result="effect1_dropShadow"/>
<feBlend mode="normal" in="SourceGraphic" in2="effect1_dropShadow" result="shape"/>
</filter>
<filter id="filter4_d" x="36.5501" y="0.300293" width="17.3909" height="19.1551" filterUnits="userSpaceOnUse" color-interpolation-filters="sRGB">
<feFlood flood-opacity="0" result="BackgroundImageFix"/>
<feColorMatrix in="SourceAlpha" type="matrix" values="0 0 0 0 0 0 0 0 0 0 0 0 0 0 0 0 0 0 127 0"/>
<feOffset dy="3"/>
<feGaussianBlur stdDeviation="3"/>
<feColorMatrix type="matrix" values="0 0 0 0 0 0 0 0 0 0 0 0 0 0 0 0 0 0 0.161 0"/>
<feBlend mode="normal" in2="BackgroundImageFix" result="effect1_dropShadow"/>
<feBlend mode="normal" in="SourceGraphic" in2="effect1_dropShadow" result="shape"/>
</filter>
<filter id="filter5_d" x="36.803" y="0.840576" width="20.7892" height="19.5109" filterUnits="userSpaceOnUse" color-interpolation-filters="sRGB">
<feFlood flood-opacity="0" result="BackgroundImageFix"/>
<feColorMatrix in="SourceAlpha" type="matrix" values="0 0 0 0 0 0 0 0 0 0 0 0 0 0 0 0 0 0 127 0"/>
<feOffset dy="3"/>
<feGaussianBlur stdDeviation="3"/>
<feColorMatrix type="matrix" values="0 0 0 0 0 0 0 0 0 0 0 0 0 0 0 0 0 0 0.161 0"/>
<feBlend mode="normal" in2="BackgroundImageFix" result="effect1_dropShadow"/>
<feBlend mode="normal" in="SourceGraphic" in2="effect1_dropShadow" result="shape"/>
</filter>
<filter id="filter6_d" x="44.8992" y="16.8535" width="28.6041" height="31.0387" filterUnits="userSpaceOnUse" color-interpolation-filters="sRGB">
<feFlood flood-opacity="0" result="BackgroundImageFix"/>
<feColorMatrix in="SourceAlpha" type="matrix" values="0 0 0 0 0 0 0 0 0 0 0 0 0 0 0 0 0 0 127 0"/>
<feOffset dy="3"/>
<feGaussianBlur stdDeviation="3"/>
<feColorMatrix type="matrix" values="0 0 0 0 0 0 0 0 0 0 0 0 0 0 0 0 0 0 0.161 0"/>
<feBlend mode="normal" in2="BackgroundImageFix" result="effect1_dropShadow"/>
<feBlend mode="normal" in="SourceGraphic" in2="effect1_dropShadow" result="shape"/>
</filter>
<filter id="filter7_d" x="35.9934" y="4.33081" width="20.9146" height="22.2446" filterUnits="userSpaceOnUse" color-interpolation-filters="sRGB">
<feFlood flood-opacity="0" result="BackgroundImageFix"/>
<feColorMatrix in="SourceAlpha" type="matrix" values="0 0 0 0 0 0 0 0 0 0 0 0 0 0 0 0 0 0 127 0"/>
<feOffset dy="3"/>
<feGaussianBlur stdDeviation="3"/>
<feColorMatrix type="matrix" values="0 0 0 0 0 0 0 0 0 0 0 0 0 0 0 0 0 0 0.161 0"/>
<feBlend mode="normal" in2="BackgroundImageFix" result="effect1_dropShadow"/>
<feBlend mode="normal" in="SourceGraphic" in2="effect1_dropShadow" result="shape"/>
</filter>
<filter id="filter8_d" x="38.9944" y="17.6033" width="19.3422" height="28.6217" filterUnits="userSpaceOnUse" color-interpolation-filters="sRGB">
<feFlood flood-opacity="0" result="BackgroundImageFix"/>
<feColorMatrix in="SourceAlpha" type="matrix" values="0 0 0 0 0 0 0 0 0 0 0 0 0 0 0 0 0 0 127 0"/>
<feOffset dy="3"/>
<feGaussianBlur stdDeviation="3"/>
<feColorMatrix type="matrix" values="0 0 0 0 0 0 0 0 0 0 0 0 0 0 0 0 0 0 0.161 0"/>
<feBlend mode="normal" in2="BackgroundImageFix" result="effect1_dropShadow"/>
<feBlend mode="normal" in="SourceGraphic" in2="effect1_dropShadow" result="shape"/>
</filter>
<filter id="filter9_d" x="37.5974" y="14.375" width="17.9622" height="18.6928" filterUnits="userSpaceOnUse" color-interpolation-filters="sRGB">
<feFlood flood-opacity="0" result="BackgroundImageFix"/>
<feColorMatrix in="SourceAlpha" type="matrix" values="0 0 0 0 0 0 0 0 0 0 0 0 0 0 0 0 0 0 127 0"/>
<feOffset dy="3"/>
<feGaussianBlur stdDeviation="3"/>
<feColorMatrix type="matrix" values="0 0 0 0 0 0 0 0 0 0 0 0 0 0 0 0 0 0 0.161 0"/>
<feBlend mode="normal" in2="BackgroundImageFix" result="effect1_dropShadow"/>
<feBlend mode="normal" in="SourceGraphic" in2="effect1_dropShadow" result="shape"/>
</filter>
<filter id="filter10_d" x="52.3799" y="177.347" width="23.2412" height="19.019" filterUnits="userSpaceOnUse" color-interpolation-filters="sRGB">
<feFlood flood-opacity="0" result="BackgroundImageFix"/>
<feColorMatrix in="SourceAlpha" type="matrix" values="0 0 0 0 0 0 0 0 0 0 0 0 0 0 0 0 0 0 127 0"/>
<feOffset dy="3"/>
<feGaussianBlur stdDeviation="3"/>
<feColorMatrix type="matrix" values="0 0 0 0 0 0 0 0 0 0 0 0 0 0 0 0 0 0 0.161 0"/>
<feBlend mode="normal" in2="BackgroundImageFix" result="effect1_dropShadow"/>
<feBlend mode="normal" in="SourceGraphic" in2="effect1_dropShadow" result="shape"/>
</filter>
<filter id="filter11_d" x="26.898" y="177.347" width="23.2419" height="19.019" filterUnits="userSpaceOnUse" color-interpolation-filters="sRGB">
<feFlood flood-opacity="0" result="BackgroundImageFix"/>
<feColorMatrix in="SourceAlpha" type="matrix" values="0 0 0 0 0 0 0 0 0 0 0 0 0 0 0 0 0 0 127 0"/>
<feOffset dy="3"/>
<feGaussianBlur stdDeviation="3"/>
<feColorMatrix type="matrix" values="0 0 0 0 0 0 0 0 0 0 0 0 0 0 0 0 0 0 0.161 0"/>
<feBlend mode="normal" in2="BackgroundImageFix" result="effect1_dropShadow"/>
<feBlend mode="normal" in="SourceGraphic" in2="effect1_dropShadow" result="shape"/>
</filter>
<filter id="filter12_d" x="38.8755" y="11.7971" width="15.8336" height="20.1075" filterUnits="userSpaceOnUse" color-interpolation-filters="sRGB">
<feFlood flood-opacity="0" result="BackgroundImageFix"/>
<feColorMatrix in="SourceAlpha" type="matrix" values="0 0 0 0 0 0 0 0 0 0 0 0 0 0 0 0 0 0 127 0"/>
<feOffset dy="3"/>
<feGaussianBlur stdDeviation="3"/>
<feColorMatrix type="matrix" values="0 0 0 0 0 0 0 0 0 0 0 0 0 0 0 0 0 0 0.161 0"/>
<feBlend mode="normal" in2="BackgroundImageFix" result="effect1_dropShadow"/>
<feBlend mode="normal" in="SourceGraphic" in2="effect1_dropShadow" result="shape"/>
</filter>
<filter id="filter13_d" x="39.2302" y="12.9709" width="14.6625" height="14.4552" filterUnits="userSpaceOnUse" color-interpolation-filters="sRGB">
<feFlood flood-opacity="0" result="BackgroundImageFix"/>
<feColorMatrix in="SourceAlpha" type="matrix" values="0 0 0 0 0 0 0 0 0 0 0 0 0 0 0 0 0 0 127 0"/>
<feOffset dy="3"/>
<feGaussianBlur stdDeviation="3"/>
<feColorMatrix type="matrix" values="0 0 0 0 0 0 0 0 0 0 0 0 0 0 0 0 0 0 0.161 0"/>
<feBlend mode="normal" in2="BackgroundImageFix" result="effect1_dropShadow"/>
<feBlend mode="normal" in="SourceGraphic" in2="effect1_dropShadow" result="shape"/>
</filter>
<filter id="filter14_d" x="37.3054" y="9.2334" width="13.9285" height="14.6729" filterUnits="userSpaceOnUse" color-interpolation-filters="sRGB">
<feFlood flood-opacity="0" result="BackgroundImageFix"/>
<feColorMatrix in="SourceAlpha" type="matrix" values="0 0 0 0 0 0 0 0 0 0 0 0 0 0 0 0 0 0 127 0"/>
<feOffset dy="3"/>
<feGaussianBlur stdDeviation="3"/>
<feColorMatrix type="matrix" values="0 0 0 0 0 0 0 0 0 0 0 0 0 0 0 0 0 0 0.161 0"/>
<feBlend mode="normal" in2="BackgroundImageFix" result="effect1_dropShadow"/>
<feBlend mode="normal" in="SourceGraphic" in2="effect1_dropShadow" result="shape"/>
</filter>
<filter id="filter15_d" x="41.4633" y="9.92236" width="14.7644" height="13.471" filterUnits="userSpaceOnUse" color-interpolation-filters="sRGB">
<feFlood flood-opacity="0" result="BackgroundImageFix"/>
<feColorMatrix in="SourceAlpha" type="matrix" values="0 0 0 0 0 0 0 0 0 0 0 0 0 0 0 0 0 0 127 0"/>
<feOffset dy="3"/>
<feGaussianBlur stdDeviation="3"/>
<feColorMatrix type="matrix" values="0 0 0 0 0 0 0 0 0 0 0 0 0 0 0 0 0 0 0.161 0"/>
<feBlend mode="normal" in2="BackgroundImageFix" result="effect1_dropShadow"/>
<feBlend mode="normal" in="SourceGraphic" in2="effect1_dropShadow" result="shape"/>
</filter>
<filter id="filter16_d" x="38.0503" y="15.748" width="17.4288" height="17.5532" filterUnits="userSpaceOnUse" color-interpolation-filters="sRGB">
<feFlood flood-opacity="0" result="BackgroundImageFix"/>
<feColorMatrix in="SourceAlpha" type="matrix" values="0 0 0 0 0 0 0 0 0 0 0 0 0 0 0 0 0 0 127 0"/>
<feOffset dy="3"/>
<feGaussianBlur stdDeviation="3"/>
<feColorMatrix type="matrix" values="0 0 0 0 0 0 0 0 0 0 0 0 0 0 0 0 0 0 0.161 0"/>
<feBlend mode="normal" in2="BackgroundImageFix" result="effect1_dropShadow"/>
<feBlend mode="normal" in="SourceGraphic" in2="effect1_dropShadow" result="shape"/>
</filter>
<filter id="filter17_d" x="40.2676" y="19.2505" width="20.5124" height="23.3319" filterUnits="userSpaceOnUse" color-interpolation-filters="sRGB">
<feFlood flood-opacity="0" result="BackgroundImageFix"/>
<feColorMatrix in="SourceAlpha" type="matrix" values="0 0 0 0 0 0 0 0 0 0 0 0 0 0 0 0 0 0 127 0"/>
<feOffset dy="3"/>
<feGaussianBlur stdDeviation="3"/>
<feColorMatrix type="matrix" values="0 0 0 0 0 0 0 0 0 0 0 0 0 0 0 0 0 0 0.161 0"/>
<feBlend mode="normal" in2="BackgroundImageFix" result="effect1_dropShadow"/>
<feBlend mode="normal" in="SourceGraphic" in2="effect1_dropShadow" result="shape"/>
</filter>
<filter id="filter18_d" x="43.1632" y="31.0481" width="17.2522" height="19.7842" filterUnits="userSpaceOnUse" color-interpolation-filters="sRGB">
<feFlood flood-opacity="0" result="BackgroundImageFix"/>
<feColorMatrix in="SourceAlpha" type="matrix" values="0 0 0 0 0 0 0 0 0 0 0 0 0 0 0 0 0 0 127 0"/>
<feOffset dy="3"/>
<feGaussianBlur stdDeviation="3"/>
<feColorMatrix type="matrix" values="0 0 0 0 0 0 0 0 0 0 0 0 0 0 0 0 0 0 0.161 0"/>
<feBlend mode="normal" in2="BackgroundImageFix" result="effect1_dropShadow"/>
<feBlend mode="normal" in="SourceGraphic" in2="effect1_dropShadow" result="shape"/>
</filter>
<filter id="filter19_d" x="43.8576" y="32.1187" width="13.4505" height="13.8679" filterUnits="userSpaceOnUse" color-interpolation-filters="sRGB">
<feFlood flood-opacity="0" result="BackgroundImageFix"/>
<feColorMatrix in="SourceAlpha" type="matrix" values="0 0 0 0 0 0 0 0 0 0 0 0 0 0 0 0 0 0 127 0"/>
<feOffset dy="3"/>
<feGaussianBlur stdDeviation="3"/>
<feColorMatrix type="matrix" values="0 0 0 0 0 0 0 0 0 0 0 0 0 0 0 0 0 0 0.161 0"/>
<feBlend mode="normal" in2="BackgroundImageFix" result="effect1_dropShadow"/>
<feBlend mode="normal" in="SourceGraphic" in2="effect1_dropShadow" result="shape"/>
</filter>
<filter id="filter20_d" x="44.015" y="34.3286" width="14.2602" height="12.7221" filterUnits="userSpaceOnUse" color-interpolation-filters="sRGB">
<feFlood flood-opacity="0" result="BackgroundImageFix"/>
<feColorMatrix in="SourceAlpha" type="matrix" values="0 0 0 0 0 0 0 0 0 0 0 0 0 0 0 0 0 0 127 0"/>
<feOffset dy="3"/>
<feGaussianBlur stdDeviation="3"/>
<feColorMatrix type="matrix" values="0 0 0 0 0 0 0 0 0 0 0 0 0 0 0 0 0 0 0.161 0"/>
<feBlend mode="normal" in2="BackgroundImageFix" result="effect1_dropShadow"/>
<feBlend mode="normal" in="SourceGraphic" in2="effect1_dropShadow" result="shape"/>
</filter>
<filter id="filter21_d" x="44.1033" y="35.3955" width="14.2602" height="12.7221" filterUnits="userSpaceOnUse" color-interpolation-filters="sRGB">
<feFlood flood-opacity="0" result="BackgroundImageFix"/>
<feColorMatrix in="SourceAlpha" type="matrix" values="0 0 0 0 0 0 0 0 0 0 0 0 0 0 0 0 0 0 127 0"/>
<feOffset dy="3"/>
<feGaussianBlur stdDeviation="3"/>
<feColorMatrix type="matrix" values="0 0 0 0 0 0 0 0 0 0 0 0 0 0 0 0 0 0 0.161 0"/>
<feBlend mode="normal" in2="BackgroundImageFix" result="effect1_dropShadow"/>
<feBlend mode="normal" in="SourceGraphic" in2="effect1_dropShadow" result="shape"/>
</filter>
<filter id="filter22_d" x="45.47" y="31.0337" width="14.9549" height="19.5879" filterUnits="userSpaceOnUse" color-interpolation-filters="sRGB">
<feFlood flood-opacity="0" result="BackgroundImageFix"/>
<feColorMatrix in="SourceAlpha" type="matrix" values="0 0 0 0 0 0 0 0 0 0 0 0 0 0 0 0 0 0 127 0"/>
<feOffset dy="3"/>
<feGaussianBlur stdDeviation="3"/>
<feColorMatrix type="matrix" values="0 0 0 0 0 0 0 0 0 0 0 0 0 0 0 0 0 0 0.161 0"/>
<feBlend mode="normal" in2="BackgroundImageFix" result="effect1_dropShadow"/>
<feBlend mode="normal" in="SourceGraphic" in2="effect1_dropShadow" result="shape"/>
</filter>
<filter id="filter23_d" x="45.2302" y="39.0422" width="19.9745" height="18.6706" filterUnits="userSpaceOnUse" color-interpolation-filters="sRGB">
<feFlood flood-opacity="0" result="BackgroundImageFix"/>
<feColorMatrix in="SourceAlpha" type="matrix" values="0 0 0 0 0 0 0 0 0 0 0 0 0 0 0 0 0 0 127 0"/>
<feOffset dy="3"/>
<feGaussianBlur stdDeviation="3"/>
<feColorMatrix type="matrix" values="0 0 0 0 0 0 0 0 0 0 0 0 0 0 0 0 0 0 0.161 0"/>
<feBlend mode="normal" in2="BackgroundImageFix" result="effect1_dropShadow"/>
<feBlend mode="normal" in="SourceGraphic" in2="effect1_dropShadow" result="shape"/>
</filter>
<filter id="filter24_d" x="27.5504" y="81.9951" width="36.1613" height="108.628" filterUnits="userSpaceOnUse" color-interpolation-filters="sRGB">
<feFlood flood-opacity="0" result="BackgroundImageFix"/>
<feColorMatrix in="SourceAlpha" type="matrix" values="0 0 0 0 0 0 0 0 0 0 0 0 0 0 0 0 0 0 127 0"/>
<feOffset dy="3"/>
<feGaussianBlur stdDeviation="3"/>
<feColorMatrix type="matrix" values="0 0 0 0 0 0 0 0 0 0 0 0 0 0 0 0 0 0 0.161 0"/>
<feBlend mode="normal" in2="BackgroundImageFix" result="effect1_dropShadow"/>
<feBlend mode="normal" in="SourceGraphic" in2="effect1_dropShadow" result="shape"/>
</filter>
<filter id="filter25_d" x="140.259" y="5.12695" width="26.3232" height="33.4045" filterUnits="userSpaceOnUse" color-interpolation-filters="sRGB">
<feFlood flood-opacity="0" result="BackgroundImageFix"/>
<feColorMatrix in="SourceAlpha" type="matrix" values="0 0 0 0 0 0 0 0 0 0 0 0 0 0 0 0 0 0 127 0"/>
<feOffset dy="3"/>
<feGaussianBlur stdDeviation="3"/>
<feColorMatrix type="matrix" values="0 0 0 0 0 0 0 0 0 0 0 0 0 0 0 0 0 0 0.161 0"/>
<feBlend mode="normal" in2="BackgroundImageFix" result="effect1_dropShadow"/>
<feBlend mode="normal" in="SourceGraphic" in2="effect1_dropShadow" result="shape"/>
</filter>
<filter id="filter26_d" x="133.395" y="7.18262" width="21.9022" height="24.0187" filterUnits="userSpaceOnUse" color-interpolation-filters="sRGB">
<feFlood flood-opacity="0" result="BackgroundImageFix"/>
<feColorMatrix in="SourceAlpha" type="matrix" values="0 0 0 0 0 0 0 0 0 0 0 0 0 0 0 0 0 0 127 0"/>
<feOffset dy="3"/>
<feGaussianBlur stdDeviation="3"/>
<feColorMatrix type="matrix" values="0 0 0 0 0 0 0 0 0 0 0 0 0 0 0 0 0 0 0.161 0"/>
<feBlend mode="normal" in2="BackgroundImageFix" result="effect1_dropShadow"/>
<feBlend mode="normal" in="SourceGraphic" in2="effect1_dropShadow" result="shape"/>
</filter>
<filter id="filter27_d" x="126.19" y="24.3503" width="29.0318" height="60.8975" filterUnits="userSpaceOnUse" color-interpolation-filters="sRGB">
<feFlood flood-opacity="0" result="BackgroundImageFix"/>
<feColorMatrix in="SourceAlpha" type="matrix" values="0 0 0 0 0 0 0 0 0 0 0 0 0 0 0 0 0 0 127 0"/>
<feOffset dy="3"/>
<feGaussianBlur stdDeviation="3"/>
<feColorMatrix type="matrix" values="0 0 0 0 0 0 0 0 0 0 0 0 0 0 0 0 0 0 0.161 0"/>
<feBlend mode="normal" in2="BackgroundImageFix" result="effect1_dropShadow"/>
<feBlend mode="normal" in="SourceGraphic" in2="effect1_dropShadow" result="shape"/>
</filter>
<filter id="filter28_d" x="112.018" y="68.5894" width="59.4879" height="119.474" filterUnits="userSpaceOnUse" color-interpolation-filters="sRGB">
<feFlood flood-opacity="0" result="BackgroundImageFix"/>
<feColorMatrix in="SourceAlpha" type="matrix" values="0 0 0 0 0 0 0 0 0 0 0 0 0 0 0 0 0 0 127 0"/>
<feOffset dy="3"/>
<feGaussianBlur stdDeviation="3"/>
<feColorMatrix type="matrix" values="0 0 0 0 0 0 0 0 0 0 0 0 0 0 0 0 0 0 0.161 0"/>
<feBlend mode="normal" in2="BackgroundImageFix" result="effect1_dropShadow"/>
<feBlend mode="normal" in="SourceGraphic" in2="effect1_dropShadow" result="shape"/>
</filter>
<filter id="filter29_d" x="135.919" y="25.3418" width="38.8319" height="64.3828" filterUnits="userSpaceOnUse" color-interpolation-filters="sRGB">
<feFlood flood-opacity="0" result="BackgroundImageFix"/>
<feColorMatrix in="SourceAlpha" type="matrix" values="0 0 0 0 0 0 0 0 0 0 0 0 0 0 0 0 0 0 127 0"/>
<feOffset dy="3"/>
<feGaussianBlur stdDeviation="3"/>
<feColorMatrix type="matrix" values="0 0 0 0 0 0 0 0 0 0 0 0 0 0 0 0 0 0 0.161 0"/>
<feBlend mode="normal" in2="BackgroundImageFix" result="effect1_dropShadow"/>
<feBlend mode="normal" in="SourceGraphic" in2="effect1_dropShadow" result="shape"/>
</filter>
<filter id="filter30_d" x="135.916" y="25.3408" width="38.8325" height="64.3795" filterUnits="userSpaceOnUse" color-interpolation-filters="sRGB">
<feFlood flood-opacity="0" result="BackgroundImageFix"/>
<feColorMatrix in="SourceAlpha" type="matrix" values="0 0 0 0 0 0 0 0 0 0 0 0 0 0 0 0 0 0 127 0"/>
<feOffset dy="3"/>
<feGaussianBlur stdDeviation="3"/>
<feColorMatrix type="matrix" values="0 0 0 0 0 0 0 0 0 0 0 0 0 0 0 0 0 0 0.161 0"/>
<feBlend mode="normal" in2="BackgroundImageFix" result="effect1_dropShadow"/>
<feBlend mode="normal" in="SourceGraphic" in2="effect1_dropShadow" result="shape"/>
</filter>
<filter id="filter31_d" x="90.3846" y="10.5793" width="19.4073" height="25.579" filterUnits="userSpaceOnUse" color-interpolation-filters="sRGB">
<feFlood flood-opacity="0" result="BackgroundImageFix"/>
<feColorMatrix in="SourceAlpha" type="matrix" values="0 0 0 0 0 0 0 0 0 0 0 0 0 0 0 0 0 0 127 0"/>
<feOffset dy="3"/>
<feGaussianBlur stdDeviation="3"/>
<feColorMatrix type="matrix" values="0 0 0 0 0 0 0 0 0 0 0 0 0 0 0 0 0 0 0.161 0"/>
<feBlend mode="normal" in2="BackgroundImageFix" result="effect1_dropShadow"/>
<feBlend mode="normal" in="SourceGraphic" in2="effect1_dropShadow" result="shape"/>
</filter>
<filter id="filter32_d" x="94.1149" y="13.9058" width="12.4405" height="12.796" filterUnits="userSpaceOnUse" color-interpolation-filters="sRGB">
<feFlood flood-opacity="0" result="BackgroundImageFix"/>
<feColorMatrix in="SourceAlpha" type="matrix" values="0 0 0 0 0 0 0 0 0 0 0 0 0 0 0 0 0 0 127 0"/>
<feOffset dy="3"/>
<feGaussianBlur stdDeviation="3"/>
<feColorMatrix type="matrix" values="0 0 0 0 0 0 0 0 0 0 0 0 0 0 0 0 0 0 0.161 0"/>
<feBlend mode="normal" in2="BackgroundImageFix" result="effect1_dropShadow"/>
<feBlend mode="normal" in="SourceGraphic" in2="effect1_dropShadow" result="shape"/>
</filter>
<filter id="filter33_d" x="135.187" y="17.3115" width="16.8869" height="21.2881" filterUnits="userSpaceOnUse" color-interpolation-filters="sRGB">
<feFlood flood-opacity="0" result="BackgroundImageFix"/>
<feColorMatrix in="SourceAlpha" type="matrix" values="0 0 0 0 0 0 0 0 0 0 0 0 0 0 0 0 0 0 127 0"/>
<feOffset dy="3"/>
<feGaussianBlur stdDeviation="3"/>
<feColorMatrix type="matrix" values="0 0 0 0 0 0 0 0 0 0 0 0 0 0 0 0 0 0 0.161 0"/>
<feBlend mode="normal" in2="BackgroundImageFix" result="effect1_dropShadow"/>
<feBlend mode="normal" in="SourceGraphic" in2="effect1_dropShadow" result="shape"/>
</filter>
<filter id="filter34_d" x="136.773" y="18.3728" width="14.9249" height="14.5247" filterUnits="userSpaceOnUse" color-interpolation-filters="sRGB">
<feFlood flood-opacity="0" result="BackgroundImageFix"/>
<feColorMatrix in="SourceAlpha" type="matrix" values="0 0 0 0 0 0 0 0 0 0 0 0 0 0 0 0 0 0 127 0"/>
<feOffset dy="3"/>
<feGaussianBlur stdDeviation="3"/>
<feColorMatrix type="matrix" values="0 0 0 0 0 0 0 0 0 0 0 0 0 0 0 0 0 0 0.161 0"/>
<feBlend mode="normal" in2="BackgroundImageFix" result="effect1_dropShadow"/>
<feBlend mode="normal" in="SourceGraphic" in2="effect1_dropShadow" result="shape"/>
</filter>
<filter id="filter35_d" x="139.812" y="14.1418" width="13.7105" height="14.948" filterUnits="userSpaceOnUse" color-interpolation-filters="sRGB">
<feFlood flood-opacity="0" result="BackgroundImageFix"/>
<feColorMatrix in="SourceAlpha" type="matrix" values="0 0 0 0 0 0 0 0 0 0 0 0 0 0 0 0 0 0 127 0"/>
<feOffset dy="3"/>
<feGaussianBlur stdDeviation="3"/>
<feColorMatrix type="matrix" values="0 0 0 0 0 0 0 0 0 0 0 0 0 0 0 0 0 0 0.161 0"/>
<feBlend mode="normal" in2="BackgroundImageFix" result="effect1_dropShadow"/>
<feBlend mode="normal" in="SourceGraphic" in2="effect1_dropShadow" result="shape"/>
</filter>
<filter id="filter36_d" x="133.555" y="12.8455" width="13.4347" height="15.0066" filterUnits="userSpaceOnUse" color-interpolation-filters="sRGB">
<feFlood flood-opacity="0" result="BackgroundImageFix"/>
<feColorMatrix in="SourceAlpha" type="matrix" values="0 0 0 0 0 0 0 0 0 0 0 0 0 0 0 0 0 0 127 0"/>
<feOffset dy="3"/>
<feGaussianBlur stdDeviation="3"/>
<feColorMatrix type="matrix" values="0 0 0 0 0 0 0 0 0 0 0 0 0 0 0 0 0 0 0.161 0"/>
<feBlend mode="normal" in2="BackgroundImageFix" result="effect1_dropShadow"/>
<feBlend mode="normal" in="SourceGraphic" in2="effect1_dropShadow" result="shape"/>
</filter>
<filter id="filter37_d" x="135.147" y="15.8372" width="14.3845" height="13.1051" filterUnits="userSpaceOnUse" color-interpolation-filters="sRGB">
<feFlood flood-opacity="0" result="BackgroundImageFix"/>
<feColorMatrix in="SourceAlpha" type="matrix" values="0 0 0 0 0 0 0 0 0 0 0 0 0 0 0 0 0 0 127 0"/>
<feOffset dy="3"/>
<feGaussianBlur stdDeviation="3"/>
<feColorMatrix type="matrix" values="0 0 0 0 0 0 0 0 0 0 0 0 0 0 0 0 0 0 0.161 0"/>
<feBlend mode="normal" in2="BackgroundImageFix" result="effect1_dropShadow"/>
<feBlend mode="normal" in="SourceGraphic" in2="effect1_dropShadow" result="shape"/>
</filter>
<filter id="filter38_d" x="133.752" y="16.3943" width="18.379" height="15.4475" filterUnits="userSpaceOnUse" color-interpolation-filters="sRGB">
<feFlood flood-opacity="0" result="BackgroundImageFix"/>
<feColorMatrix in="SourceAlpha" type="matrix" values="0 0 0 0 0 0 0 0 0 0 0 0 0 0 0 0 0 0 127 0"/>
<feOffset dy="3"/>
<feGaussianBlur stdDeviation="3"/>
<feColorMatrix type="matrix" values="0 0 0 0 0 0 0 0 0 0 0 0 0 0 0 0 0 0 0.161 0"/>
<feBlend mode="normal" in2="BackgroundImageFix" result="effect1_dropShadow"/>
<feBlend mode="normal" in="SourceGraphic" in2="effect1_dropShadow" result="shape"/>
</filter>
<filter id="filter39_d" x="136.059" y="9.58862" width="16.9354" height="16.3441" filterUnits="userSpaceOnUse" color-interpolation-filters="sRGB">
<feFlood flood-opacity="0" result="BackgroundImageFix"/>
<feColorMatrix in="SourceAlpha" type="matrix" values="0 0 0 0 0 0 0 0 0 0 0 0 0 0 0 0 0 0 127 0"/>
<feOffset dy="3"/>
<feGaussianBlur stdDeviation="3"/>
<feColorMatrix type="matrix" values="0 0 0 0 0 0 0 0 0 0 0 0 0 0 0 0 0 0 0.161 0"/>
<feBlend mode="normal" in2="BackgroundImageFix" result="effect1_dropShadow"/>
<feBlend mode="normal" in="SourceGraphic" in2="effect1_dropShadow" result="shape"/>
</filter>
<filter id="filter40_d" x="97.5158" y="91.0503" width="18.0715" height="25.0942" filterUnits="userSpaceOnUse" color-interpolation-filters="sRGB">
<feFlood flood-opacity="0" result="BackgroundImageFix"/>
<feColorMatrix in="SourceAlpha" type="matrix" values="0 0 0 0 0 0 0 0 0 0 0 0 0 0 0 0 0 0 127 0"/>
<feOffset dy="3"/>
<feGaussianBlur stdDeviation="3"/>
<feColorMatrix type="matrix" values="0 0 0 0 0 0 0 0 0 0 0 0 0 0 0 0 0 0 0.161 0"/>
<feBlend mode="normal" in2="BackgroundImageFix" result="effect1_dropShadow"/>
<feBlend mode="normal" in="SourceGraphic" in2="effect1_dropShadow" result="shape"/>
</filter>
<filter id="filter41_d" x="211.545" y="21.0344" width="39.6046" height="72.7454" filterUnits="userSpaceOnUse" color-interpolation-filters="sRGB">
<feFlood flood-opacity="0" result="BackgroundImageFix"/>
<feColorMatrix in="SourceAlpha" type="matrix" values="0 0 0 0 0 0 0 0 0 0 0 0 0 0 0 0 0 0 127 0"/>
<feOffset dy="3"/>
<feGaussianBlur stdDeviation="3"/>
<feColorMatrix type="matrix" values="0 0 0 0 0 0 0 0 0 0 0 0 0 0 0 0 0 0 0.161 0"/>
<feBlend mode="normal" in2="BackgroundImageFix" result="effect1_dropShadow"/>
<feBlend mode="normal" in="SourceGraphic" in2="effect1_dropShadow" result="shape"/>
</filter>
<filter id="filter42_d" x="198.463" y="1.23804" width="21.6629" height="24.3634" filterUnits="userSpaceOnUse" color-interpolation-filters="sRGB">
<feFlood flood-opacity="0" result="BackgroundImageFix"/>
<feColorMatrix in="SourceAlpha" type="matrix" values="0 0 0 0 0 0 0 0 0 0 0 0 0 0 0 0 0 0 127 0"/>
<feOffset dy="3"/>
<feGaussianBlur stdDeviation="3"/>
<feColorMatrix type="matrix" values="0 0 0 0 0 0 0 0 0 0 0 0 0 0 0 0 0 0 0.161 0"/>
<feBlend mode="normal" in2="BackgroundImageFix" result="effect1_dropShadow"/>
<feBlend mode="normal" in="SourceGraphic" in2="effect1_dropShadow" result="shape"/>
</filter>
<filter id="filter43_d" x="187.279" y="15.8274" width="27.4795" height="24.4806" filterUnits="userSpaceOnUse" color-interpolation-filters="sRGB">
<feFlood flood-opacity="0" result="BackgroundImageFix"/>
<feColorMatrix in="SourceAlpha" type="matrix" values="0 0 0 0 0 0 0 0 0 0 0 0 0 0 0 0 0 0 127 0"/>
<feOffset dy="3"/>
<feGaussianBlur stdDeviation="3"/>
<feColorMatrix type="matrix" values="0 0 0 0 0 0 0 0 0 0 0 0 0 0 0 0 0 0 0.161 0"/>
<feBlend mode="normal" in2="BackgroundImageFix" result="effect1_dropShadow"/>
<feBlend mode="normal" in="SourceGraphic" in2="effect1_dropShadow" result="shape"/>
</filter>
<filter id="filter44_d" x="201.047" y="10.782" width="18.7547" height="22.808" filterUnits="userSpaceOnUse" color-interpolation-filters="sRGB">
<feFlood flood-opacity="0" result="BackgroundImageFix"/>
<feColorMatrix in="SourceAlpha" type="matrix" values="0 0 0 0 0 0 0 0 0 0 0 0 0 0 0 0 0 0 127 0"/>
<feOffset dy="3"/>
<feGaussianBlur stdDeviation="3"/>
<feColorMatrix type="matrix" values="0 0 0 0 0 0 0 0 0 0 0 0 0 0 0 0 0 0 0.161 0"/>
<feBlend mode="normal" in2="BackgroundImageFix" result="effect1_dropShadow"/>
<feBlend mode="normal" in="SourceGraphic" in2="effect1_dropShadow" result="shape"/>
</filter>
<filter id="filter45_d" x="201.108" y="15.3105" width="15.6735" height="14.6344" filterUnits="userSpaceOnUse" color-interpolation-filters="sRGB">
<feFlood flood-opacity="0" result="BackgroundImageFix"/>
<feColorMatrix in="SourceAlpha" type="matrix" values="0 0 0 0 0 0 0 0 0 0 0 0 0 0 0 0 0 0 127 0"/>
<feOffset dy="3"/>
<feGaussianBlur stdDeviation="3"/>
<feColorMatrix type="matrix" values="0 0 0 0 0 0 0 0 0 0 0 0 0 0 0 0 0 0 0.161 0"/>
<feBlend mode="normal" in2="BackgroundImageFix" result="effect1_dropShadow"/>
<feBlend mode="normal" in="SourceGraphic" in2="effect1_dropShadow" result="shape"/>
</filter>
<filter id="filter46_d" x="197.846" y="5.19604" width="19.9461" height="23.0446" filterUnits="userSpaceOnUse" color-interpolation-filters="sRGB">
<feFlood flood-opacity="0" result="BackgroundImageFix"/>
<feColorMatrix in="SourceAlpha" type="matrix" values="0 0 0 0 0 0 0 0 0 0 0 0 0 0 0 0 0 0 127 0"/>
<feOffset dy="3"/>
<feGaussianBlur stdDeviation="3"/>
<feColorMatrix type="matrix" values="0 0 0 0 0 0 0 0 0 0 0 0 0 0 0 0 0 0 0.161 0"/>
<feBlend mode="normal" in2="BackgroundImageFix" result="effect1_dropShadow"/>
<feBlend mode="normal" in="SourceGraphic" in2="effect1_dropShadow" result="shape"/>
</filter>
<filter id="filter47_d" x="198.481" y="10.917" width="14.6861" height="13.5449" filterUnits="userSpaceOnUse" color-interpolation-filters="sRGB">
<feFlood flood-opacity="0" result="BackgroundImageFix"/>
<feColorMatrix in="SourceAlpha" type="matrix" values="0 0 0 0 0 0 0 0 0 0 0 0 0 0 0 0 0 0 127 0"/>
<feOffset dy="3"/>
<feGaussianBlur stdDeviation="3"/>
<feColorMatrix type="matrix" values="0 0 0 0 0 0 0 0 0 0 0 0 0 0 0 0 0 0 0.161 0"/>
<feBlend mode="normal" in2="BackgroundImageFix" result="effect1_dropShadow"/>
<feBlend mode="normal" in="SourceGraphic" in2="effect1_dropShadow" result="shape"/>
</filter>
<filter id="filter48_d" x="204.17" y="7.87256" width="14.409" height="16.0768" filterUnits="userSpaceOnUse" color-interpolation-filters="sRGB">
<feFlood flood-opacity="0" result="BackgroundImageFix"/>
<feColorMatrix in="SourceAlpha" type="matrix" values="0 0 0 0 0 0 0 0 0 0 0 0 0 0 0 0 0 0 127 0"/>
<feOffset dy="3"/>
<feGaussianBlur stdDeviation="3"/>
<feColorMatrix type="matrix" values="0 0 0 0 0 0 0 0 0 0 0 0 0 0 0 0 0 0 0.161 0"/>
<feBlend mode="normal" in2="BackgroundImageFix" result="effect1_dropShadow"/>
<feBlend mode="normal" in="SourceGraphic" in2="effect1_dropShadow" result="shape"/>
</filter>
<filter id="filter49_d" x="205.146" y="21.5955" width="29.9319" height="30.606" filterUnits="userSpaceOnUse" color-interpolation-filters="sRGB">
<feFlood flood-opacity="0" result="BackgroundImageFix"/>
<feColorMatrix in="SourceAlpha" type="matrix" values="0 0 0 0 0 0 0 0 0 0 0 0 0 0 0 0 0 0 127 0"/>
<feOffset dy="3"/>
<feGaussianBlur stdDeviation="3"/>
<feColorMatrix type="matrix" values="0 0 0 0 0 0 0 0 0 0 0 0 0 0 0 0 0 0 0.161 0"/>
<feBlend mode="normal" in2="BackgroundImageFix" result="effect1_dropShadow"/>
<feBlend mode="normal" in="SourceGraphic" in2="effect1_dropShadow" result="shape"/>
</filter>
<filter id="filter50_d" x="183.752" y="7.78638" width="24.6643" height="20.5874" filterUnits="userSpaceOnUse" color-interpolation-filters="sRGB">
<feFlood flood-opacity="0" result="BackgroundImageFix"/>
<feColorMatrix in="SourceAlpha" type="matrix" values="0 0 0 0 0 0 0 0 0 0 0 0 0 0 0 0 0 0 127 0"/>
<feOffset dy="3"/>
<feGaussianBlur stdDeviation="3"/>
<feColorMatrix type="matrix" values="0 0 0 0 0 0 0 0 0 0 0 0 0 0 0 0 0 0 0.161 0"/>
<feBlend mode="normal" in2="BackgroundImageFix" result="effect1_dropShadow"/>
<feBlend mode="normal" in="SourceGraphic" in2="effect1_dropShadow" result="shape"/>
</filter>
<filter id="filter51_d" x="185.417" y="9.53271" width="17.1872" height="17.1687" filterUnits="userSpaceOnUse" color-interpolation-filters="sRGB">
<feFlood flood-opacity="0" result="BackgroundImageFix"/>
<feColorMatrix in="SourceAlpha" type="matrix" values="0 0 0 0 0 0 0 0 0 0 0 0 0 0 0 0 0 0 127 0"/>
<feOffset dy="3"/>
<feGaussianBlur stdDeviation="3"/>
<feColorMatrix type="matrix" values="0 0 0 0 0 0 0 0 0 0 0 0 0 0 0 0 0 0 0.161 0"/>
<feBlend mode="normal" in2="BackgroundImageFix" result="effect1_dropShadow"/>
<feBlend mode="normal" in="SourceGraphic" in2="effect1_dropShadow" result="shape"/>
</filter>
<filter id="filter52_d" x="184.729" y="8.99341" width="18.4005" height="18.3769" filterUnits="userSpaceOnUse" color-interpolation-filters="sRGB">
<feFlood flood-opacity="0" result="BackgroundImageFix"/>
<feColorMatrix in="SourceAlpha" type="matrix" values="0 0 0 0 0 0 0 0 0 0 0 0 0 0 0 0 0 0 127 0"/>
<feOffset dy="3"/>
<feGaussianBlur stdDeviation="3"/>
<feColorMatrix type="matrix" values="0 0 0 0 0 0 0 0 0 0 0 0 0 0 0 0 0 0 0.161 0"/>
<feBlend mode="normal" in2="BackgroundImageFix" result="effect1_dropShadow"/>
<feBlend mode="normal" in="SourceGraphic" in2="effect1_dropShadow" result="shape"/>
</filter>
<filter id="filter53_d" x="184.905" y="7.28906" width="13.7066" height="13.5614" filterUnits="userSpaceOnUse" color-interpolation-filters="sRGB">
<feFlood flood-opacity="0" result="BackgroundImageFix"/>
<feColorMatrix in="SourceAlpha" type="matrix" values="0 0 0 0 0 0 0 0 0 0 0 0 0 0 0 0 0 0 127 0"/>
<feOffset dy="3"/>
<feGaussianBlur stdDeviation="3"/>
<feColorMatrix type="matrix" values="0 0 0 0 0 0 0 0 0 0 0 0 0 0 0 0 0 0 0.161 0"/>
<feBlend mode="normal" in2="BackgroundImageFix" result="effect1_dropShadow"/>
<feBlend mode="normal" in="SourceGraphic" in2="effect1_dropShadow" result="shape"/>
</filter>
<filter id="filter54_d" x="187.124" y="5.33984" width="16.8921" height="15.5781" filterUnits="userSpaceOnUse" color-interpolation-filters="sRGB">
<feFlood flood-opacity="0" result="BackgroundImageFix"/>
<feColorMatrix in="SourceAlpha" type="matrix" values="0 0 0 0 0 0 0 0 0 0 0 0 0 0 0 0 0 0 127 0"/>
<feOffset dy="3"/>
<feGaussianBlur stdDeviation="3"/>
<feColorMatrix type="matrix" values="0 0 0 0 0 0 0 0 0 0 0 0 0 0 0 0 0 0 0.161 0"/>
<feBlend mode="normal" in2="BackgroundImageFix" result="effect1_dropShadow"/>
<feBlend mode="normal" in="SourceGraphic" in2="effect1_dropShadow" result="shape"/>
</filter>
<filter id="filter55_d" x="187.663" y="5.86548" width="15.8317" height="13.2638" filterUnits="userSpaceOnUse" color-interpolation-filters="sRGB">
<feFlood flood-opacity="0" result="BackgroundImageFix"/>
<feColorMatrix in="SourceAlpha" type="matrix" values="0 0 0 0 0 0 0 0 0 0 0 0 0 0 0 0 0 0 127 0"/>
<feOffset dy="3"/>
<feGaussianBlur stdDeviation="3"/>
<feColorMatrix type="matrix" values="0 0 0 0 0 0 0 0 0 0 0 0 0 0 0 0 0 0 0.161 0"/>
<feBlend mode="normal" in2="BackgroundImageFix" result="effect1_dropShadow"/>
<feBlend mode="normal" in="SourceGraphic" in2="effect1_dropShadow" result="shape"/>
</filter>
<filter id="filter56_d" x="187.548" y="10.0122" width="14.6752" height="15.0425" filterUnits="userSpaceOnUse" color-interpolation-filters="sRGB">
<feFlood flood-opacity="0" result="BackgroundImageFix"/>
<feColorMatrix in="SourceAlpha" type="matrix" values="0 0 0 0 0 0 0 0 0 0 0 0 0 0 0 0 0 0 127 0"/>
<feOffset dy="3"/>
<feGaussianBlur stdDeviation="3"/>
<feColorMatrix type="matrix" values="0 0 0 0 0 0 0 0 0 0 0 0 0 0 0 0 0 0 0.161 0"/>
<feBlend mode="normal" in2="BackgroundImageFix" result="effect1_dropShadow"/>
<feBlend mode="normal" in="SourceGraphic" in2="effect1_dropShadow" result="shape"/>
</filter>
<filter id="filter57_d" x="198.038" y="13.7932" width="19.6359" height="14.4466" filterUnits="userSpaceOnUse" color-interpolation-filters="sRGB">
<feFlood flood-opacity="0" result="BackgroundImageFix"/>
<feColorMatrix in="SourceAlpha" type="matrix" values="0 0 0 0 0 0 0 0 0 0 0 0 0 0 0 0 0 0 127 0"/>
<feOffset dy="3"/>
<feGaussianBlur stdDeviation="3"/>
<feColorMatrix type="matrix" values="0 0 0 0 0 0 0 0 0 0 0 0 0 0 0 0 0 0 0.161 0"/>
<feBlend mode="normal" in2="BackgroundImageFix" result="effect1_dropShadow"/>
<feBlend mode="normal" in="SourceGraphic" in2="effect1_dropShadow" result="shape"/>
</filter>
</defs>
</svg>
