<svg width="171" height="248" viewBox="0 0 171 248" fill="none" xmlns="http://www.w3.org/2000/svg">
<g clip-path="url(#clip0)">
<path d="M113.374 232.072C113.374 232.072 106.469 204.692 89.8389 192.845V179.772H82.8129C82.8129 179.772 74.1835 154.118 74.9248 148.44H77.6321V138.569H72.2095L65.1674 39.1464C65.0224 37.098 65.393 34.9689 66.6097 33.3075C66.8756 32.9366 67.0367 32.4849 67.0367 31.993V29.5252C67.0367 28.2993 66.0457 27.3073 64.821 27.3073H64.3295C64.3295 27.3073 64.265 25.0169 62.9436 22.9927C62.1056 21.7104 61.6706 20.2023 61.5497 18.67L60.0913 0L58.7619 18.4845C58.6329 20.291 57.9642 22.0007 56.949 23.5008C55.6679 25.3799 55.4584 27.3154 55.4584 27.3154H54.9669C53.7422 27.3154 52.7511 28.3074 52.7511 29.5332V32.001C52.7511 32.493 52.9123 32.9446 53.1782 33.3156C54.3948 34.9689 54.7654 37.106 54.6204 39.1545L47.5783 138.577H42.1558V148.448H44.863C45.6043 154.126 36.9749 179.78 36.9749 179.78H29.949V192.853C13.3107 204.684 6.40555 232.072 6.40555 232.072H0V237.992H34.7511V231.33H31.7941V228.862C39.1907 203.942 59.8899 204.684 59.8899 204.684C59.8899 204.684 80.5971 203.942 87.9857 228.862V231.33H85.0287V237.992H119.78V232.072H113.374ZM59.8899 178.78H50.0358C53.7341 171.135 54.4754 157.07 54.4754 157.07H59.8979H65.3205C65.3205 157.07 66.0618 171.135 69.7601 178.78H59.8899Z" fill="#FF8F8F"/>
<path d="M136.845 45.8241C140.721 50.2839 136.555 57.6712 130.657 61.7198C124.816 65.736 117.5 71.1636 115.421 74.4944C110.74 82.0027 100.563 132.641 94.488 134.158C83.5703 136.892 95.3904 81.7527 102.86 71.0265C110.329 60.3004 121.415 47.2838 127.257 45.5418C131.358 44.3079 135.653 44.445 136.845 45.8241Z" fill="#AD263D"/>
<path d="M136.845 45.824C135.645 44.4449 131.358 44.3159 127.249 45.5417C123.389 46.695 117.25 52.7597 111.368 59.8406C113.374 62.002 116.895 65.5505 121.166 68.7361C124.082 66.3489 127.571 63.8407 130.657 61.7197C136.555 57.6631 140.729 50.2758 136.845 45.824Z" fill="#D95F76"/>
<path d="M143.009 27.6057C143.009 27.6057 144.064 22.9926 147.996 22.5733C151.928 22.1539 156.352 24.5007 155.651 27.6057C154.95 30.7106 150.832 34.5898 153.048 36.0979C155.264 37.606 161.041 39.2028 160.678 43.9933C160.316 48.7838 154.249 48.9693 154.249 48.9693C154.249 48.9693 155.788 45.453 153.467 44.6465C151.147 43.8401 145.789 42.6304 143.758 37.3399C141.728 32.0574 143.009 27.6057 143.009 27.6057Z" fill="#311E69"/>
<path d="M143.009 27.6056C143.009 27.6056 143.452 25.6943 144.814 24.2184C151.203 23.1458 150.051 32.5332 153.201 32.5494C152.396 34.0494 151.969 35.3559 153.048 36.0979C155.264 37.606 161.041 39.2028 160.678 43.9933C160.316 48.7838 154.249 48.9692 154.249 48.9692C154.249 48.9692 155.788 45.453 153.467 44.6465C151.147 43.84 145.789 42.6303 143.758 37.3398C141.728 32.0574 143.009 27.6056 143.009 27.6056Z" fill="#1E1240"/>
<path d="M136.7 27.0735C136.7 27.0735 137.288 24.9525 140.624 25.0654C143.96 25.1783 150.14 34.0899 143.46 38.5578C136.789 43.0257 133.904 35.1948 133.928 32.8479C133.953 30.501 133.679 27.2106 136.7 27.0735Z" fill="#311E69"/>
<path d="M167.012 243.677C166.012 245.218 156.408 244.637 154.805 244.008C153.87 243.645 154.789 242.701 155.715 241.984C152.653 243.33 148.875 245.081 148.689 246.089C148.375 247.766 165.859 248.758 168.865 247.298C170.436 246.532 169.485 244.629 168.204 242.468C167.761 242.766 167.35 243.161 167.012 243.677Z" fill="#311E69"/>
<path d="M108.894 84.156C109.047 83.1721 111.328 80.8333 114.293 79.7687C116.227 74.9541 118.313 69.5184 119.345 66.0989C121.544 58.7922 130.48 45.6547 135.306 44.3563C140.133 43.0659 143.041 46.2838 143.041 46.2838L138.263 93.0192C140.318 93.5353 142.364 95.3176 144.201 99.0839C151.791 114.649 155.433 165.78 160.147 184.643C166.141 208.628 167.753 241.718 168.204 242.476C167.761 242.774 167.35 243.177 167.02 243.693C166.021 245.234 156.416 244.653 154.813 244.024C153.878 243.661 154.797 242.718 155.723 242C157.649 241.322 159.035 240.855 159.551 240.137C160.421 238.919 143.339 226.193 132.615 173.844C134.484 208.007 136.41 241.371 137.014 242.347C136.579 242.661 136.176 243.064 135.854 243.589C134.887 245.145 125.275 244.758 123.655 244.169C122.713 243.822 123.615 242.863 124.526 242.121C126.548 241.185 129.094 240.459 129.207 240.25C129.449 239.814 114.406 215.249 108.902 187.95C105.333 170.304 107.428 93.3579 108.894 84.156Z" fill="#FF6161"/>
<path d="M135.838 243.564C134.871 245.121 125.251 244.734 123.639 244.145C122.696 243.798 123.599 242.838 124.509 242.096C121.48 243.508 117.733 245.33 117.564 246.339C117.282 248.024 134.79 248.661 137.764 247.137C139.319 246.339 138.328 244.451 137.006 242.322C136.563 242.637 136.168 243.04 135.838 243.564Z" fill="#311E69"/>
<path d="M146.337 104.649C145.66 102.487 144.951 100.608 144.21 99.0758C142.381 95.3176 140.334 93.5273 138.271 93.0111L143.049 46.2757C143.049 46.2757 140.141 43.0579 135.314 44.3482C130.488 45.6386 121.544 58.7761 119.353 66.0909C118.321 69.5103 116.235 74.946 114.301 79.7607C111.336 80.8252 109.056 83.164 108.902 84.1479C108.548 86.3738 108.161 92.5675 107.815 100.923C115.856 104.568 130.931 109.512 146.337 104.649Z" fill="#FF8F8F"/>
<path d="M146.337 104.648C145.66 102.487 144.951 100.608 144.21 99.0757C142.381 95.3176 140.334 93.5272 138.271 93.011L143.049 46.2756C143.049 46.2756 128.103 63.8972 126.016 71.4216C124.3 77.6154 124.808 94.8095 125.38 106.132C131.809 107.052 139.037 106.947 146.337 104.648Z" fill="#D95F76"/>
<path d="M166.907 228.814C165.771 216.813 163.749 199.071 160.139 184.635C155.893 167.634 152.509 124.407 146.329 104.649C130.931 109.512 115.848 104.576 107.807 100.931C106.743 127.117 106.195 174.57 108.886 187.933C112.262 204.676 116.493 222.959 121.319 232.709C125.291 234.701 132.382 233.37 136.015 231.814C135.129 219.128 133.848 196.66 132.599 173.828C139.021 205.176 144.975 222.846 150.736 231.814C156.876 231.088 164.433 229.451 166.907 228.814Z" fill="#614CD4"/>
<path d="M160.147 184.627C156.489 169.981 153.475 135.875 148.754 114.076C145.595 118.359 142.735 123.972 141.897 130.843C139.786 148.174 145.845 182.562 148.689 197.337C151.453 211.66 154.184 223.862 157.963 230.701C161.871 229.991 165.376 229.209 166.915 228.806C165.771 216.813 163.756 199.071 160.147 184.627Z" fill="#311E69"/>
<path d="M143.123 49.3159C143.123 49.3159 144.194 46.7594 148.255 47.7111C152.308 48.6708 163.903 55.3887 163.645 60.7437C163.492 63.7842 163.741 69.5343 163.975 73.9377C164.16 77.3572 165.159 80.6718 166.884 83.6316C168.527 86.4462 170.445 90.6076 170.977 95.2771C171.952 103.858 151.132 115.996 142.365 111.076C133.607 106.157 137.184 56.9372 143.123 49.3159Z" fill="#614CD4"/>
<path d="M169.888 90.3334C159.728 92.0915 152.218 81.3573 150.47 74.7442C148.899 68.8005 152.678 54.5016 153.886 50.2111C151.654 48.9369 149.56 48.0256 148.246 47.7191C144.193 46.7594 143.114 49.324 143.114 49.324C137.175 56.9452 133.59 106.165 142.356 111.092C151.115 116.012 171.935 103.866 170.968 95.2933C170.774 93.5432 170.388 91.8818 169.888 90.3334Z" fill="#311E69"/>
<path d="M83.7636 29.2832L88.0904 31.3477C88.7027 31.4929 89.0734 32.0978 88.9364 32.7107L86.1727 45.1547C86.0277 45.7676 85.4234 46.1386 84.8111 46.0015L80.4843 43.9369C79.8719 43.7917 79.5013 43.1868 79.6383 42.5739L82.4019 30.13C82.547 29.517 83.1593 29.138 83.7636 29.2832Z" fill="#311E69"/>
<path d="M84.8512 33.9285C84.9238 33.6624 84.8754 33.4123 84.7465 33.372C84.6095 33.3317 84.4403 33.5253 84.3678 33.7914C84.2953 34.0575 84.3436 34.3075 84.4725 34.3479C84.6015 34.3801 84.7707 34.1946 84.8512 33.9285Z" fill="white"/>
<path d="M120.851 58.4695C121.56 57.284 121.689 55.8081 121.085 54.5662C120.207 52.7516 120.182 50.6386 122.02 48.8563C126.064 44.9207 134.774 42.9448 134.774 42.9448C138.456 41.9528 142.155 43.3964 145.571 45.6062C158.148 53.7516 139.665 66.0423 140.946 75.1878C140.978 75.4055 150.986 85.8172 153.975 96.1723C159.913 116.738 161.46 132.174 167.092 152.884C167.793 155.457 166.762 158.182 164.546 159.666C164.32 159.82 164.087 159.973 163.853 160.118C153.387 166.82 139.52 160.086 138.078 147.739C134.436 116.528 129.255 72.8167 131.108 67.2198C133.864 58.9292 142.687 49.4128 141.897 46.6869C141.107 43.961 139.48 44.3481 139.48 44.3481C139.48 44.3481 133.558 46.0659 129.9 51.1467C126.532 55.8323 104.334 87.8656 109.982 155.037C110.457 160.691 104.704 164.787 99.5236 162.473C86.9139 102.431 118.442 62.518 120.851 58.4695Z" fill="#1E1240"/>
<path d="M142.364 37.5737L141.978 45.7353C141.905 47.0821 138.4 50.3322 136.386 48.5015C135.798 47.9692 136.724 46.1708 137.385 44.8078L139.399 37.8963L142.364 37.5737Z" fill="#FF6161"/>
<path d="M138.199 42.0093C139.979 41.5738 141.889 39.0575 141.889 39.0575L139.101 38.8882L138.199 42.0093Z" fill="#311E69"/>
<path d="M142.67 32.3477L142.977 35.5091C143.218 38.0172 141.486 40.3802 138.988 40.6706C136.684 40.9367 134.557 39.4931 134.396 36.5898C134.251 34.0091 136.2 31.9041 136.926 30.7831C138.577 28.2185 142.058 28.7347 142.67 32.3477Z" fill="#FF6161"/>
<path d="M142.405 35.3479C142.526 35.0979 142.598 34.8237 142.663 34.5575C142.775 34.0414 143.073 33.2994 143.75 33.8478C144.741 34.6463 143.968 37.3721 142.646 37.2915C141.663 37.235 142.107 35.985 142.405 35.3479Z" fill="#FF6161"/>
<path d="M135.886 33.993C135.862 33.7188 135.878 33.4365 135.919 33.1623C135.983 32.6381 135.967 31.8397 135.137 32.122C133.928 32.5333 133.727 35.356 135 35.735C135.943 36.0173 135.951 34.6947 135.886 33.993Z" fill="#FF6161"/>
<path d="M139.158 36.4607C139.158 36.4607 137.651 36.7591 136.144 35.7429C136.144 35.751 136.595 38.2672 139.158 36.4607Z" fill="white"/>
<path d="M138.771 39.6302C137.828 39.606 136.184 39.1302 135.532 38.5172C134.952 37.9769 134.484 36.7188 134.388 36.4365C134.388 36.4849 134.388 36.5333 134.388 36.5817C134.549 39.485 136.676 40.9367 138.98 40.6625C140.519 40.485 141.768 39.5173 142.445 38.2108C141.099 39.3398 139.617 39.6544 138.771 39.6302Z" fill="#AD263D"/>
<path d="M137.651 28.6299C137.651 28.6299 136.788 29.4848 137.78 31.001C138.432 31.993 141.655 33.7108 143.122 33.3478C144.588 32.9849 142.042 25.9686 137.651 28.6299Z" fill="#311E69"/>
<path d="M120.328 119.754L119.465 118.996C119.465 118.996 116.033 154.981 119.465 174.078C121.552 185.675 128.071 221.08 130.335 233.387C132.502 233.04 134.541 232.451 136.007 231.822C135.121 219.136 133.84 196.668 132.591 173.836C132.591 173.836 128.474 138.714 127.055 134.166C126.371 131.972 125.565 129.23 124.912 126.988C124.115 124.173 122.519 121.673 120.328 119.754Z" fill="#311E69"/>
<path d="M95.0922 129.464C96.3733 132.23 96.6231 135.271 95.8335 138.093C95.487 139.327 95.2453 140.634 95.487 141.295C96.1557 143.158 93.666 142.263 93.3276 139.69C93.1665 138.464 92.53 137.432 92.2882 138.585C92.0465 139.738 93.6096 146.4 91.6678 144.505C88.2354 141.15 87.5586 135.94 90.4431 131.343C91.6759 129.383 94.222 127.585 95.0922 129.464Z" fill="#AD263D"/>
<path d="M150.913 49.6145C150.913 49.6145 144.105 48.2839 142.042 51.1952C139.98 54.1147 134.178 65.4941 136.45 75.3493C138.723 85.2044 154.894 90.3336 156.835 90.3336C158.777 90.3336 162.435 96.2612 160.695 97.6726C158.954 99.0839 139.399 96.979 133.163 86.9706C125.92 75.3412 130.222 61.002 133.244 55.1954C137.224 47.5661 146.442 41.8159 150.913 49.6145Z" fill="#614CD4"/>
<path d="M147.65 56.4857C145.773 60.2923 138.199 73.5266 114.156 75.3573C88.9686 77.2767 79.2677 40.4449 87.7036 41.1142C91.7645 41.4368 98.0411 53.3646 110.675 61.3165C118.773 66.4134 134.855 53.3082 142.284 50.179C147.811 47.8564 149.221 53.3082 147.65 56.4857Z" fill="#FF6161"/>
<path d="M147.513 56.7678C141.583 58.163 131.68 62.889 131.68 62.889C131.68 62.889 121.415 72.1231 112.746 70.0908C104.076 68.0585 103.303 64.6955 98.9757 63.3728C94.649 62.0502 89.6132 55.5903 89.5245 49.6143C89.4681 45.7513 87.3491 43.1625 85.8585 41.8076C81.1852 46.8481 91.281 77.0991 114.164 75.3571C137.651 73.5667 145.41 60.8969 147.513 56.7678Z" fill="#AD263D"/>
<path d="M88.5255 41.1141C88.5255 41.1141 88.2596 38.5415 88.324 37.6382C88.3885 36.735 88.888 34.622 87.6633 35.7591C86.4386 36.9043 87.0671 38.5173 85.8424 38.2673C84.6177 38.0253 81.8701 35.7188 81.7976 34.4446C81.7251 33.1703 79.9122 34.6462 80.2103 37.3963C80.5084 40.1464 82.5308 43.8965 85.9713 43.7594C89.4198 43.6384 88.5255 41.1141 88.5255 41.1141Z" fill="#FF6161"/>
<path d="M142.292 50.1789C139.48 51.3644 135.435 53.9774 131.044 56.4855C131.398 59.4937 131.116 67.2198 135.58 71.0264C143.621 66.3891 146.49 58.8405 147.65 56.4855C149.221 53.308 147.811 47.8562 142.292 50.1789Z" fill="#FF8F8F"/>
<path d="M144.201 56.7437C142.961 59.3083 137.49 61.9616 133.598 62.4051C132.833 62.4939 132.204 62.6713 131.672 62.8971C132.172 65.8488 133.195 69.0021 135.572 71.0264C143.613 66.3891 146.482 58.8405 147.642 56.4856C148.536 54.671 148.464 52.1064 147.199 50.679C146.28 52.5419 144.951 55.1952 144.201 56.7437Z" fill="#D95F76"/>
</g>
<defs>
<clipPath id="clip0">
<rect width="171" height="248" fill="white"/>
</clipPath>
</defs>
</svg>
