<svg width="76" height="70" viewBox="0 0 76 70" fill="none" xmlns="http://www.w3.org/2000/svg">
<path d="M40.9051 53.7677L40.6194 53.7052L40.345 53.8064L23.3395 60.0832L23.3394 60.0833C23.2581 60.1133 23.1527 60.1241 23.0406 60.1014C22.9284 60.0786 22.8339 60.0273 22.7685 59.9662C22.7037 59.9058 22.6797 59.8484 22.6727 59.8135C22.6664 59.7816 22.6713 59.7576 22.683 59.7357L22.683 59.7356L26.8376 51.992L27.4635 50.8254L26.1703 50.5423L11.2787 47.2826C9.29024 46.8453 7.55724 45.7357 6.44854 44.2275L5.64282 44.8198L6.44854 44.2275C5.34322 42.7239 4.95279 40.9581 5.30985 39.316L12.2641 7.54625C12.6257 5.90515 13.7181 4.46395 15.3505 3.55962C16.9878 2.6526 19.0257 2.36843 21.0149 2.80168L66.8617 12.8373C68.8499 13.2747 70.5827 14.3843 71.6914 15.8923C72.7968 17.3961 73.1872 19.1622 72.8299 20.8044L65.8759 52.573C65.5145 54.2143 64.422 55.6558 62.7894 56.5602C61.152 57.4673 59.1139 57.7515 57.1246 57.3181L40.9051 53.7677Z" stroke="#223263" stroke-width="2"/>
<g clip-path="url(#clip0)">
<path d="M42.7016 14.8037C39.6819 14.1428 36.5341 14.392 33.6561 15.5201C30.7781 16.6481 28.2992 18.6042 26.533 21.1411C24.7667 23.678 23.7924 26.6816 23.7333 29.7722C23.6741 32.8628 24.5327 35.9015 26.2005 38.5041C28.437 41.9941 31.9683 44.4527 36.0175 45.3391C40.0668 46.2254 44.3023 45.4669 47.7923 43.2304C51.2823 40.9939 53.7409 37.4627 54.6272 33.4134C55.5136 29.3642 54.7551 25.1287 52.5186 21.6387C51.4155 19.9069 49.9798 18.4111 48.2947 17.2379C46.6096 16.0647 44.7086 15.2373 42.7016 14.8037ZM31.3299 17.5414C32.5307 16.7706 33.8356 16.1757 35.2051 15.7749L36.6655 17.4723C36.7943 17.6217 36.9316 17.7636 37.0766 17.8974C37.5482 18.3336 37.9196 18.8669 38.1652 19.4606L38.8571 21.1399C38.9592 21.3858 38.98 21.6579 38.9165 21.9165C38.853 22.1751 38.7086 22.4066 38.5042 22.5773L37.9022 23.0829C37.8044 23.1647 37.687 23.2196 37.5615 23.2422C37.4361 23.2648 37.3069 23.2543 37.1868 23.2118L36.6695 23.0272C36.2358 22.8721 35.7659 22.8485 35.3189 22.9594C34.8718 23.0703 34.4674 23.3107 34.1564 23.6505C34.0558 23.7564 33.9261 23.8304 33.7837 23.8631C33.6413 23.8957 33.4924 23.8857 33.3556 23.8341L32.1724 23.4132C31.7517 23.2619 31.2972 23.2309 30.8599 23.3237C30.4226 23.4165 30.0198 23.6293 29.6967 23.9383C29.389 24.2306 29.1734 24.6064 29.0763 25.0195C28.9792 25.4327 29.0048 25.8652 29.15 26.2639L29.681 27.7228C29.86 28.2093 30.2157 28.6105 30.6772 28.8465C31.1387 29.0825 31.6722 29.136 32.1714 28.9964L33.1048 28.7316C33.3042 28.6757 33.5148 28.6721 33.7161 28.7213C33.9173 28.7705 34.1025 28.8708 34.2537 29.0125L35.6309 30.3109C35.7376 30.4116 35.8708 30.4798 36.015 30.5074C36.6058 30.6195 37.1157 31.0548 37.3804 31.6693L37.9194 32.9202C37.9613 33.0174 38.0077 33.1138 38.0572 33.207L38.8107 34.623C38.8218 34.6435 38.8282 34.6662 38.8295 34.6895C38.8307 34.7128 38.8268 34.7361 38.8179 34.7577C38.7984 34.7994 38.764 34.8324 38.7215 34.8502L36.941 35.687C36.3945 35.9426 35.9415 36.3628 35.6454 36.8885L34.7693 38.4386C34.7241 38.5186 34.6635 38.5889 34.5909 38.6453L33.9609 39.1358C33.4322 39.5407 33.0395 40.097 32.835 40.7307C32.8112 40.8065 32.7671 40.8744 32.7075 40.9269C32.6479 40.9795 32.5751 41.0148 32.4969 41.0291C32.4904 41.0304 32.4838 41.0298 32.4777 41.0273C32.4716 41.0248 32.4664 41.0206 32.4626 41.0152C32.458 41.0046 32.4561 40.9929 32.4573 40.9813L32.6044 38.0728C32.6253 37.6498 32.5429 37.2281 32.3644 36.8441L31.1374 34.2107C31.0468 34.0169 30.9944 33.8076 30.9829 33.594L30.8634 31.4204C30.8378 30.9758 30.6977 30.5454 30.4566 30.1709C30.2155 29.7965 29.8817 29.4908 29.4875 29.2835L29.3712 29.2226C29.1896 29.1275 29.034 28.9894 28.9181 28.8203L28.0767 27.5911C27.9637 27.4261 27.8751 27.2457 27.8136 27.0555C27.6411 26.52 27.311 26.049 26.8664 25.7043C26.4218 25.3597 25.8834 25.1573 25.3218 25.1238C26.4165 21.9935 28.5328 19.3227 31.3299 17.5414ZM47.3892 42.6014C44.911 44.1895 42.0175 45.0071 39.0747 44.9508C36.1318 44.8945 33.2717 43.9667 30.8562 42.2849C28.4406 40.6031 26.578 38.2427 25.5039 35.5023C24.4298 32.7619 24.1924 29.7645 24.8218 26.8892C24.8976 26.5428 24.9852 26.2012 25.0844 25.8643L25.2055 25.8668C25.6299 25.8769 26.0406 26.019 26.3806 26.2732C26.7206 26.5274 26.973 26.8812 27.1027 27.2854C27.1863 27.5439 27.3067 27.789 27.4601 28.0132L28.3013 29.2423C28.4865 29.5122 28.7348 29.7327 29.0247 29.8847L29.1411 29.9455C29.4207 30.0926 29.6575 30.3095 29.8286 30.5751C29.9996 30.8407 30.099 31.1461 30.1171 31.4615L30.2366 33.6351C30.2532 33.9438 30.329 34.2464 30.4599 34.5265L31.6869 37.1599C31.8141 37.4335 31.8728 37.7339 31.8579 38.0352L31.7113 40.9441C31.6988 41.131 31.7539 41.3161 31.8665 41.4657C31.9791 41.6154 32.1418 41.7195 32.3248 41.7591C32.4259 41.7813 32.5304 41.783 32.6322 41.7643C32.8438 41.7257 33.0409 41.6301 33.2023 41.4877C33.3636 41.3453 33.483 41.1616 33.5476 40.9564C33.7066 40.4671 34.011 40.0379 34.4201 39.7259L35.0501 39.2354C35.2005 39.1184 35.3261 38.9727 35.4197 38.8068L36.2959 37.2568C36.516 36.8659 36.8526 36.5536 37.2589 36.3636L39.0393 35.5268C39.2551 35.4285 39.4249 35.251 39.5135 35.0311C39.5616 34.909 39.5826 34.778 39.5752 34.647C39.5677 34.516 39.532 34.3882 39.4704 34.2724L38.7168 32.8565C38.6768 32.7813 38.6394 32.7034 38.6056 32.625L38.0666 31.374C37.7038 30.5319 36.9894 29.9335 36.1556 29.7739C36.151 29.773 36.1468 29.7708 36.1434 29.7676L34.7661 28.4692C34.5206 28.2392 34.22 28.0763 33.8932 27.9964C33.5665 27.9166 33.2246 27.9223 32.9007 28.0132L31.9675 28.2779C31.6499 28.3667 31.3105 28.3327 31.0168 28.1825C30.7232 28.0324 30.4969 27.7772 30.383 27.4676L29.852 26.0088C29.7566 25.7467 29.7397 25.4624 29.8036 25.1909C29.8674 24.9194 30.0092 24.6725 30.2114 24.4804C30.4346 24.2669 30.7128 24.1198 31.0149 24.0557C31.317 23.9916 31.631 24.013 31.9217 24.1175L33.105 24.5385C33.3801 24.6394 33.6787 24.6569 33.9636 24.5889C34.2486 24.5209 34.5071 24.3703 34.7069 24.1561C34.9187 23.9247 35.1942 23.7609 35.4988 23.6854C35.8033 23.6099 36.1234 23.626 36.4188 23.7317L36.9361 23.9162C37.1791 24.0021 37.4402 24.0232 37.6939 23.9775C37.9475 23.9318 38.1849 23.8209 38.3827 23.6556L38.9847 23.15C39.3109 22.8775 39.5414 22.508 39.6427 22.0953C39.744 21.6826 39.7108 21.2483 39.5479 20.8558L38.856 19.1761C38.5688 18.482 38.1345 17.8585 37.5831 17.3485C37.4591 17.234 37.3417 17.1126 37.2316 16.9847L36.0091 15.5637C38.703 14.9462 41.5156 15.0891 44.133 15.9767C46.7504 16.8642 49.0698 18.4615 50.8325 20.5903L50.3367 21.037C49.1955 21.8407 48.1428 22.7633 47.1965 23.7894L46.4382 24.6121C46.2829 24.7855 46.1856 25.0029 46.1596 25.2341C46.1336 25.4654 46.1803 25.699 46.2932 25.9025C46.4947 26.2689 46.8244 26.5481 47.219 26.6866L47.4769 26.7773C47.9014 26.9267 48.2735 27.1961 48.5479 27.5528C48.8224 27.9095 48.9875 28.3382 49.0231 28.7868C49.0566 29.22 48.9653 29.6536 48.76 30.0365C48.5548 30.4194 48.2442 30.7354 47.865 30.9474L44.7452 32.6946C44.5479 32.8065 44.3768 32.9593 44.2432 33.1427C44.1097 33.326 44.0167 33.5358 43.9707 33.7579L43.8359 34.3734C43.7875 34.5801 43.7922 34.7957 43.8496 35C43.9069 35.2044 44.015 35.3909 44.1639 35.5423C44.3959 35.7756 44.5719 36.0586 44.6786 36.3698C44.7853 36.6811 44.8198 37.0125 44.7797 37.3391L44.7065 37.9516C44.6743 38.2219 44.7449 38.4945 44.9043 38.7152C45.0638 38.9359 45.3004 39.0886 45.5672 39.143L47.104 39.4794C47.5568 39.5815 48.0295 39.5493 48.4642 39.3865C48.8988 39.2238 49.2765 38.9376 49.5508 38.5633L49.6876 38.3804C49.9286 38.0472 50.2587 37.7887 50.6399 37.6345C51.0211 37.4802 51.438 37.4366 51.8429 37.5084L52.2077 37.573L52.219 37.5747C51.0318 39.6106 49.376 41.3339 47.3892 42.6014ZM52.6027 36.8719L52.4193 36.8509C52.3903 36.8475 52.3614 36.8433 52.3334 36.8384L51.9687 36.7758C51.426 36.6804 50.8674 36.7398 50.3569 36.9471C49.8463 37.1544 49.4045 37.5013 49.0819 37.9481L48.9467 38.1237C48.7578 38.3807 48.4978 38.5769 48.1988 38.6881C47.8998 38.7993 47.5748 38.8206 47.2638 38.7495L45.7269 38.413C45.6411 38.3979 45.5642 38.3506 45.5119 38.2808C45.4597 38.2111 45.4359 38.124 45.4454 38.0374L45.5168 37.4169C45.5713 36.9799 45.5255 36.5363 45.3831 36.1196C45.2406 35.703 45.0052 35.3242 44.6947 35.012C44.634 34.9499 44.5904 34.8733 44.5678 34.7895C44.5452 34.7057 44.5446 34.6175 44.5658 34.5333L44.7006 33.9177C44.724 33.799 44.7726 33.6866 44.843 33.5883C44.9135 33.4899 45.0042 33.4077 45.109 33.3473L48.2353 31.6017C48.7391 31.3196 49.1515 30.8991 49.4237 30.39C49.696 29.8808 49.8166 29.3043 49.7715 28.7288C49.724 28.1357 49.5056 27.5691 49.1427 27.0977C48.7798 26.6263 48.2879 26.2703 47.7267 26.0728L47.468 25.982C47.2466 25.9043 47.0617 25.7477 46.9485 25.5422C46.9113 25.4753 46.8955 25.3986 46.903 25.3224C46.9106 25.2462 46.9412 25.1741 46.9909 25.1158L47.7464 24.296C48.6617 23.3035 49.6805 22.4116 50.7853 21.6355C50.7976 21.6269 50.8095 21.6174 50.8207 21.6073L51.2943 21.1805C51.5013 21.4595 51.6997 21.7466 51.8896 22.0418C52.9489 23.685 53.6718 25.5221 54.0165 27.4466C54.3611 29.3711 54.3206 31.3449 53.8973 33.2536C53.6231 34.5103 53.1879 35.7264 52.6027 36.8718L52.6027 36.8719Z" fill="#223263" stroke="#223263" stroke-width="1.2"/>
</g>
<defs>
<clipPath id="clip0">
<rect width="31.881" height="31.881" fill="white" transform="translate(27.1964 11.0911) rotate(12.347)"/>
</clipPath>
</defs>
</svg>
