<svg width="113" height="35" viewBox="0 0 113 35" fill="none" xmlns="http://www.w3.org/2000/svg">
<path d="M7.67203 17.4097C2.38664 10.9426 2.62148 6.23562 5.07147 3.70496C5.07147 3.70496 5.07354 3.70292 5.07699 3.69884C5.08045 3.69544 5.08459 3.69136 5.08735 3.68796C5.11636 3.65599 5.18751 3.58254 5.30148 3.48053C5.30493 3.47712 5.30839 3.47372 5.31184 3.471C6.19458 2.6542 7.32322 2.09312 8.56651 1.8034L8.57066 1.80272C9.33183 1.59733 10.2229 1.4545 11.2513 1.43206C11.6133 1.42254 11.8378 1.40554 12.1645 1.41778L12.2259 1.41982C13.9507 1.54224 15.6989 2.06591 17.0741 3.0711C17.0886 3.08131 17.1017 3.09287 17.1156 3.10375C17.1238 3.10987 17.1321 3.11667 17.1404 3.12347C15.9669 1.85032 14.6946 1.1607 14.2256 0.932186C14.2145 0.927425 14.2042 0.921985 14.1945 0.917224C14.1793 0.909743 14.1648 0.902942 14.151 0.896821C14.133 0.88866 14.1164 0.881178 14.1026 0.874377C14.0964 0.871657 14.0902 0.868937 14.0847 0.866216C14.0778 0.863496 14.0722 0.860776 14.0667 0.858735C14.0619 0.856015 14.0577 0.854654 14.0543 0.853294C14.0432 0.847853 14.0377 0.845813 14.0377 0.845813C5.41476 -3.02328 -7.20217 6.92996 5.17139 19.5397C8.70442 23.5231 9.39728 24.6519 11.2307 26.4855C12.2307 26.4855 11.7307 26.4855 12.2307 26.4855C13.2247 22.1934 7.67203 17.4097 7.67203 17.4097Z" fill="#FE862C"/>
<path d="M11.8279 20.0975C11.3769 17.962 10.2966 16.3114 9.14171 14.6907C9.14033 14.6887 9.13895 14.6867 9.13825 14.6853C7.93847 13.0007 6.65926 11.3474 5.92503 9.21524C5.92434 9.21388 5.92434 9.2132 5.92364 9.21252C5.76616 8.75413 5.63354 8.2733 5.53201 7.76527C5.36762 6.5472 5.54651 5.50461 5.9713 4.63476C5.9713 4.63408 5.97199 4.63408 5.97199 4.63408C6.57361 3.40174 7.66978 2.51624 8.9863 1.96808C8.9863 1.96808 8.98837 1.96672 8.9932 1.96468C8.99459 1.964 8.99666 1.96264 8.99942 1.96196C9.06158 1.93612 9.12513 1.91232 9.18799 1.88851C9.8269 1.6498 11.2429 1.4274 11.9889 1.41584L11.2546 1.4104C10.2261 1.43284 9.33166 1.59743 8.57048 1.80282C8.5691 1.80282 8.56772 1.80282 8.56634 1.8035C7.32304 2.09322 6.19441 2.65431 5.31167 3.47111C5.30821 3.47383 5.30476 3.47723 5.30131 3.48063C5.22809 3.54796 5.15833 3.61733 5.08718 3.68806C5.08442 3.69146 5.08028 3.69554 5.07682 3.69894C5.07337 3.70302 5.0713 3.70506 5.0713 3.70506C2.62131 6.23572 2.38647 10.9427 7.67186 17.4098C7.67117 17.4091 12.0994 22.6588 11.1054 26.9509C11.4632 25.6451 11.7575 24.5039 11.9882 23.4899V23.4892C11.9889 23.4865 11.9895 23.4838 11.9895 23.481C11.9902 23.479 11.9902 23.477 11.9909 23.4749C12.0179 23.3042 12.0441 23.1383 12.0697 22.9778C12.0697 22.9771 12.0697 22.9771 12.0697 22.9764C12.1857 22.0073 12.0821 21.047 11.8279 20.0975Z" fill="#FE862C"/>
<path d="M17.1439 3.12675C17.1428 3.12554 17.1415 3.12445 17.1402 3.12355C17.1319 3.11675 17.1236 3.10995 17.1153 3.10382C17.1015 3.09294 17.0877 3.08206 17.0739 3.07118C15.9825 2.2333 14.7268 1.80619 13.65 1.59128C13.6431 1.58992 13.6362 1.58856 13.6292 1.5872C13.5885 1.57904 13.547 1.57156 13.507 1.56408C13.0497 1.48178 12.6222 1.43758 12.2257 1.41989L12.1642 1.41785C11.8686 1.41105 11.5744 1.41921 11.2856 1.44166C10.541 1.49879 9.82683 1.64977 9.18791 1.88848C9.12618 1.91186 9.06379 1.93524 9.00269 1.96055C9.00046 1.96147 8.99713 1.96258 8.99498 1.96366C8.99308 1.96461 8.99037 1.96583 8.98849 1.9668C8.98583 1.96815 8.98483 1.96863 8.98208 1.96978C7.66741 2.51808 6.57291 3.403 5.97192 4.63405C5.54713 5.5039 5.36754 6.54718 5.53193 7.76524C5.63347 8.27327 5.76609 8.7541 5.92357 9.21249L5.92495 9.21521C6.65843 11.3451 7.93575 12.9972 9.13444 14.68C9.13694 14.6835 9.13923 14.6872 9.14164 14.6907C10.2965 16.3114 11.3768 17.962 11.8278 20.0975C12.082 21.0469 12.1856 22.0072 12.0696 22.9764C12.0979 22.7962 12.1255 22.6254 12.1525 22.4486C12.7348 18.4993 11.7691 15.972 11.4811 15.3307C11.4797 15.3273 11.4783 15.3246 11.477 15.3212C11.4576 15.281 11.4383 15.2416 11.4196 15.2008C11.4148 15.1919 11.4107 15.1831 11.4065 15.1736L11.4037 15.1688C10.9278 14.1854 10.2786 12.9775 9.4193 11.3405C6.38763 4.67983 12.712 3.07077 16.6607 5.40812C16.7429 5.45679 16.818 5.51703 16.8855 5.58461C17.8242 6.52409 18.001 6.72477 18.73 8.15791C18.876 8.44503 19.2897 8.36456 19.296 8.04248C19.3195 5.28662 18.374 4.46071 17.1439 3.12675Z" fill="#FE862C"/>
<path d="M21.2172 17.4654C21.0999 17.4654 21.0039 17.428 20.9292 17.3534C20.8546 17.2787 20.8172 17.1827 20.8172 17.0654V15.6254C20.8172 15.508 20.8546 15.412 20.9292 15.3374C21.0039 15.2627 21.0999 15.2254 21.2172 15.2254H23.1372C23.2546 15.2254 23.3506 15.2627 23.4252 15.3374C23.4999 15.412 23.5372 15.508 23.5372 15.6254V17.0654C23.5372 17.1827 23.4999 17.2787 23.4252 17.3534C23.3506 17.428 23.2546 17.4654 23.1372 17.4654H21.2172ZM21.2332 26.9854C21.1159 26.9854 21.0199 26.948 20.9452 26.8734C20.8706 26.7987 20.8332 26.7027 20.8332 26.5854V19.0654C20.8332 18.948 20.8706 18.852 20.9452 18.7774C21.0199 18.7027 21.1159 18.6654 21.2332 18.6654H23.1212C23.2386 18.6654 23.3346 18.7027 23.4092 18.7774C23.4839 18.852 23.5212 18.948 23.5212 19.0654V26.5854C23.5212 26.692 23.4839 26.788 23.4092 26.8734C23.3346 26.948 23.2386 26.9854 23.1212 26.9854H21.2332ZM29.3153 27.1454C28.4513 27.1454 27.726 27.0227 27.1393 26.7774C26.5633 26.532 26.1367 26.2387 25.8593 25.8974C25.582 25.556 25.4433 25.252 25.4433 24.9854C25.4433 24.8787 25.4807 24.7934 25.5553 24.7294C25.6407 24.6547 25.7313 24.6174 25.8273 24.6174H27.6513C27.7153 24.6174 27.774 24.644 27.8273 24.6974C27.9553 24.7827 28.0513 24.852 28.1153 24.9054C28.35 25.076 28.5527 25.204 28.7233 25.2894C28.9047 25.364 29.1233 25.4014 29.3793 25.4014C29.6887 25.4014 29.9393 25.3427 30.1313 25.2254C30.334 25.0974 30.4353 24.9214 30.4353 24.6974C30.4353 24.516 30.382 24.372 30.2753 24.2654C30.1793 24.1587 29.9873 24.0574 29.6993 23.9614C29.4113 23.8547 28.974 23.7427 28.3873 23.6254C27.502 23.444 26.8193 23.1507 26.3393 22.7454C25.87 22.3294 25.6353 21.7747 25.6353 21.0814C25.6353 20.644 25.774 20.228 26.0513 19.8334C26.3287 19.4387 26.7393 19.1187 27.2833 18.8734C27.838 18.628 28.494 18.5054 29.2513 18.5054C30.0087 18.5054 30.67 18.6227 31.2353 18.8574C31.8007 19.092 32.2273 19.38 32.5153 19.7214C32.814 20.052 32.9633 20.356 32.9633 20.6334C32.9633 20.7294 32.926 20.8147 32.8513 20.8894C32.7873 20.964 32.7073 21.0014 32.6113 21.0014H30.9473C30.862 21.0014 30.782 20.9747 30.7073 20.9214C30.5687 20.8467 30.446 20.7667 30.3393 20.6814C30.158 20.5427 29.9873 20.436 29.8273 20.3614C29.6673 20.2867 29.47 20.2494 29.2353 20.2494C28.958 20.2494 28.734 20.3134 28.5633 20.4414C28.4033 20.5694 28.3233 20.7347 28.3233 20.9374C28.3233 21.0974 28.366 21.2307 28.4513 21.3374C28.5473 21.444 28.7393 21.5507 29.0273 21.6574C29.326 21.7534 29.7633 21.8547 30.3393 21.9614C31.374 22.1427 32.126 22.4627 32.5953 22.9214C33.0753 23.38 33.3153 23.9187 33.3153 24.5374C33.3153 25.3267 32.9633 25.9614 32.2593 26.4414C31.5553 26.9107 30.574 27.1454 29.3153 27.1454ZM35.5991 17.4654C35.4818 17.4654 35.3858 17.428 35.3111 17.3534C35.2364 17.2787 35.1991 17.1827 35.1991 17.0654V15.6254C35.1991 15.508 35.2364 15.412 35.3111 15.3374C35.3858 15.2627 35.4818 15.2254 35.5991 15.2254H37.5191C37.6364 15.2254 37.7324 15.2627 37.8071 15.3374C37.8818 15.412 37.9191 15.508 37.9191 15.6254V17.0654C37.9191 17.1827 37.8818 17.2787 37.8071 17.3534C37.7324 17.428 37.6364 17.4654 37.5191 17.4654H35.5991ZM35.6151 26.9854C35.4978 26.9854 35.4018 26.948 35.3271 26.8734C35.2524 26.7987 35.2151 26.7027 35.2151 26.5854V19.0654C35.2151 18.948 35.2524 18.852 35.3271 18.7774C35.4018 18.7027 35.4978 18.6654 35.6151 18.6654H37.5031C37.6204 18.6654 37.7164 18.7027 37.7911 18.7774C37.8658 18.852 37.9031 18.948 37.9031 19.0654V26.5854C37.9031 26.692 37.8658 26.788 37.7911 26.8734C37.7164 26.948 37.6204 26.9854 37.5031 26.9854H35.6151ZM44.5292 26.9854C42.3212 26.9854 41.2172 25.9347 41.2172 23.8334V20.7614H39.9692C39.8519 20.7614 39.7506 20.724 39.6652 20.6494C39.5906 20.5747 39.5532 20.4787 39.5532 20.3614V19.0654C39.5532 18.948 39.5906 18.852 39.6652 18.7774C39.7506 18.7027 39.8519 18.6654 39.9692 18.6654H41.2172V16.0254C41.2172 15.908 41.2546 15.812 41.3292 15.7374C41.4146 15.6627 41.5106 15.6254 41.6172 15.6254H43.4732C43.5906 15.6254 43.6866 15.6627 43.7612 15.7374C43.8359 15.812 43.8732 15.908 43.8732 16.0254V18.6654H45.8732C45.9906 18.6654 46.0866 18.7027 46.1612 18.7774C46.2466 18.852 46.2892 18.948 46.2892 19.0654V20.3614C46.2892 20.4787 46.2466 20.5747 46.1612 20.6494C46.0866 20.724 45.9906 20.7614 45.8732 20.7614H43.8732V23.6094C43.8732 24.3987 44.1772 24.7934 44.7852 24.7934H46.0172C46.1346 24.7934 46.2306 24.8307 46.3052 24.9054C46.3799 24.98 46.4172 25.076 46.4172 25.1934V26.5854C46.4172 26.692 46.3799 26.788 46.3052 26.8734C46.2306 26.948 46.1346 26.9854 46.0172 26.9854H44.5292ZM48.606 17.4654C48.4886 17.4654 48.3926 17.428 48.318 17.3534C48.2433 17.2787 48.206 17.1827 48.206 17.0654V15.6254C48.206 15.508 48.2433 15.412 48.318 15.3374C48.3926 15.2627 48.4886 15.2254 48.606 15.2254H50.526C50.6433 15.2254 50.7393 15.2627 50.814 15.3374C50.8886 15.412 50.926 15.508 50.926 15.6254V17.0654C50.926 17.1827 50.8886 17.2787 50.814 17.3534C50.7393 17.428 50.6433 17.4654 50.526 17.4654H48.606ZM48.622 26.9854C48.5046 26.9854 48.4086 26.948 48.334 26.8734C48.2593 26.7987 48.222 26.7027 48.222 26.5854V19.0654C48.222 18.948 48.2593 18.852 48.334 18.7774C48.4086 18.7027 48.5046 18.6654 48.622 18.6654H50.51C50.6273 18.6654 50.7233 18.7027 50.798 18.7774C50.8726 18.852 50.91 18.948 50.91 19.0654V26.5854C50.91 26.692 50.8726 26.788 50.798 26.8734C50.7233 26.948 50.6273 26.9854 50.51 26.9854H48.622Z" fill="#FE862C"/>
<path d="M10.9824 24.6533C10.5229 25.3426 10.7091 26.2739 11.3984 26.7334C12.0877 27.193 13.019 27.0067 13.4785 26.3174L10.9824 24.6533ZM18.4785 18.8174C18.9381 18.1281 18.7518 17.1968 18.0625 16.7373C17.3732 16.2777 16.4419 16.464 15.9824 17.1533L18.4785 18.8174ZM13.4785 26.3174L18.4785 18.8174L15.9824 17.1533L10.9824 24.6533L13.4785 26.3174Z" fill="#FE862C"/>
</svg>
