<svg width="76" height="72" viewBox="0 0 76 72" fill="none" xmlns="http://www.w3.org/2000/svg">
<path d="M34.4957 48.7918C35.0678 48.2424 35.0678 47.3533 34.4957 46.8039C33.923 46.2561 32.9953 46.2561 32.422 46.8039C31.8505 47.3533 31.8505 48.2424 32.422 48.7918C32.9953 49.3395 33.923 49.3395 34.4957 48.7918Z" fill="#223263"/>
<path d="M27.5546 15.4508C27.5546 23.9704 34.7871 30.9022 43.6769 30.9022C52.5667 30.9022 59.7992 23.9704 59.7992 15.4508C59.7992 6.93126 52.5667 0 43.6769 0C34.7871 0 27.5546 6.93126 27.5546 15.4508ZM56.8682 15.4508C56.8682 22.4216 50.9506 28.0928 43.6769 28.0928C36.4032 28.0928 30.4856 22.4216 30.4856 15.4508C30.4856 8.48062 36.4032 2.80949 43.6769 2.80949C50.9506 2.80949 56.8682 8.48062 56.8682 15.4508Z" fill="#223263"/>
<path d="M16.8821 71.5216C17.4502 72.0705 18.3751 72.0765 18.9507 71.5331L26.0566 64.8242C27.2638 63.6672 27.6309 61.9543 27.1 60.4653L28.6285 59.0526C29.4515 58.2908 30.535 57.871 31.6804 57.871H51.1649C54.6217 57.871 57.8889 56.5988 60.3657 54.2887C60.4677 54.1938 59.592 55.1822 73.6584 39.0706C75.7447 36.7051 75.4326 33.153 72.962 31.1514C70.5069 29.1685 66.8291 29.4533 64.7371 31.7782L56.0883 40.2972C54.9962 39.0091 53.3308 38.2061 51.5315 38.2061H35.1875C32.8618 37.2737 30.3941 36.8017 27.8479 36.8017C20.7901 36.8017 14.6275 39.9256 11.3202 45.7828C9.92683 45.5298 8.45731 45.9338 7.40013 46.9469L0.427656 53.6488C-0.141596 54.1959 -0.142741 55.0812 0.425365 55.6301L16.8821 71.5216ZM27.8474 39.6106C30.0923 39.6106 32.2628 40.0436 34.2999 40.8976C34.4854 40.9756 34.6853 41.0156 34.8874 41.0156H51.5315C53.1207 41.0156 54.463 42.2577 54.463 43.8246C54.463 45.3739 53.1482 46.6341 51.5315 46.6341H39.5732C38.764 46.6341 38.1077 47.263 38.1077 48.0385C38.1077 48.8146 38.764 49.443 39.5732 49.443H51.5315C54.7643 49.443 57.3941 46.9228 57.3941 43.8246C57.3941 43.5776 57.3757 43.3328 57.3425 43.0902C65.7089 34.8484 66.8887 33.6903 66.9391 33.6327C67.9836 32.451 69.838 32.3012 71.0716 33.2979C72.3063 34.2984 72.4626 36.0745 71.4152 37.2627L58.2691 52.3239C56.3495 54.09 53.8291 55.062 51.1649 55.062H31.6804C29.771 55.062 27.9636 55.7618 26.5926 57.0312L25.347 58.1832L13.8646 47.1796C16.5482 42.3548 21.5839 39.6106 27.8474 39.6106ZM9.47441 48.9321C9.95776 48.4688 10.7 48.3854 11.2893 48.7345C11.543 48.8827 10.8145 48.2471 23.984 60.8506C24.5699 61.4121 24.5384 62.3067 23.992 62.8302L17.9342 68.5497L3.53277 54.6427L9.47441 48.9321Z" fill="#223263"/>
<path d="M41.9182 7.02343V8.66939C40.2121 9.24896 38.9866 10.8104 38.9866 12.6419C38.9866 14.9651 40.9589 16.8558 43.3837 16.8558C44.1917 16.8558 44.8492 17.4859 44.8492 18.2603C44.8492 19.0347 44.1917 19.6648 43.3837 19.6648C42.7577 19.6648 42.0814 19.2877 41.4806 18.6022C40.9595 18.0084 40.0352 17.9321 39.4155 18.431C38.7959 18.9304 38.7157 19.8163 39.2368 20.4101C40.0203 21.3031 40.9417 21.9254 41.9182 22.2394V23.8788C41.9182 24.6548 42.5745 25.2832 43.3837 25.2832C44.1929 25.2832 44.8492 24.6548 44.8492 23.8788V22.2328C46.5552 21.6527 47.7808 20.0912 47.7808 18.2603C47.7808 15.9365 45.8084 14.0463 43.3837 14.0463C42.5756 14.0463 41.9182 13.4163 41.9182 12.6419C41.9182 11.8675 42.5756 11.2368 43.3837 11.2368C43.9031 11.2368 44.4512 11.491 44.9689 11.9712C45.5507 12.5107 46.4785 12.4959 47.0414 11.9388C47.6044 11.3812 47.5889 10.4921 47.0076 9.95257C46.2637 9.26268 45.5192 8.87246 44.8492 8.65951V7.02343C44.8492 6.24738 44.1929 5.61841 43.3837 5.61841C42.5745 5.61841 41.9182 6.24738 41.9182 7.02343Z" fill="#223263"/>
</svg>
