<svg width="316" height="204" viewBox="0 0 316 204" fill="none" xmlns="http://www.w3.org/2000/svg">
<path d="M18.336 26C18.176 26 18.032 25.944 17.904 25.832C17.792 25.704 17.736 25.56 17.736 25.4V22.688H10.272C10.096 22.688 9.952 22.632 9.84 22.52C9.728 22.408 9.672 22.264 9.672 22.088V19.808C9.672 19.568 9.76 19.32 9.936 19.064L16.92 9.608C17.144 9.336 17.44 9.2 17.808 9.2H21.312C21.488 9.2 21.632 9.256 21.744 9.368C21.856 9.48 21.912 9.624 21.912 9.8V19.112H24.024C24.216 19.112 24.368 19.176 24.48 19.304C24.592 19.416 24.648 19.552 24.648 19.712V22.088C24.648 22.264 24.592 22.408 24.48 22.52C24.368 22.632 24.224 22.688 24.048 22.688H21.912V25.4C21.912 25.56 21.856 25.704 21.744 25.832C21.632 25.944 21.488 26 21.312 26H18.336ZM17.832 19.28V13.616L13.8 19.28H17.832ZM26.9668 27.8C26.8388 27.8 26.7268 27.744 26.6308 27.632C26.5348 27.536 26.4948 27.416 26.5107 27.272L27.2548 22.568C27.2868 22.344 27.3748 22.152 27.5188 21.992C27.6628 21.832 27.8628 21.752 28.1188 21.752H30.9268C31.0548 21.752 31.1588 21.8 31.2388 21.896C31.3348 21.976 31.3828 22.08 31.3828 22.208C31.3828 22.32 31.3668 22.408 31.3348 22.472L29.5348 27.128C29.4388 27.336 29.3268 27.496 29.1988 27.608C29.0708 27.736 28.8868 27.8 28.6468 27.8H26.9668ZM35.5324 26C35.3884 26 35.2684 25.952 35.1724 25.856C35.0764 25.744 35.0284 25.616 35.0284 25.472C35.0284 25.392 35.0444 25.32 35.0764 25.256L40.6204 12.824H33.4444C33.2684 12.824 33.1164 12.768 32.9884 12.656C32.8764 12.528 32.8204 12.376 32.8204 12.2V9.8C32.8204 9.624 32.8764 9.48 32.9884 9.368C33.1164 9.256 33.2684 9.2 33.4444 9.2H44.6524C44.8444 9.2 44.9964 9.256 45.1084 9.368C45.2204 9.48 45.2764 9.624 45.2764 9.8V11.936C45.2764 12.272 45.1884 12.632 45.0124 13.016L39.4684 25.424C39.2924 25.808 39.0124 26 38.6284 26H35.5324Z" fill="#223263"/>
<rect x="66" y="56" width="188" height="18" rx="5" fill="#EBF0FF"/>
<rect x="69" y="59" width="170" height="12" rx="4" fill="#FE862C"/>
<path d="M11.284 70.154C10.5093 70.154 9.842 70.0233 9.282 69.762C8.73133 69.5007 8.30667 69.1553 8.008 68.726C7.71867 68.2967 7.56467 67.8347 7.546 67.34V67.312C7.546 67.2373 7.574 67.1767 7.63 67.13C7.686 67.0833 7.756 67.06 7.84 67.06H9.142C9.35667 67.06 9.49667 67.1533 9.562 67.34C9.69267 67.7507 9.90733 68.054 10.206 68.25C10.514 68.446 10.8733 68.544 11.284 68.544C11.8067 68.544 12.2407 68.3853 12.586 68.068C12.9407 67.7507 13.118 67.3073 13.118 66.738C13.118 66.234 12.9407 65.8233 12.586 65.506C12.2407 65.1887 11.8067 65.03 11.284 65.03C11.004 65.03 10.7753 65.0673 10.598 65.142C10.4207 65.2167 10.248 65.3193 10.08 65.45C9.968 65.534 9.87933 65.5947 9.814 65.632C9.758 65.66 9.688 65.674 9.604 65.674H8.316C8.232 65.674 8.15733 65.646 8.092 65.59C8.036 65.5247 8.008 65.45 8.008 65.366L8.498 60.578C8.50733 60.466 8.54467 60.3773 8.61 60.312C8.68467 60.2373 8.778 60.2 8.89 60.2H14.154C14.2473 60.2 14.3267 60.2327 14.392 60.298C14.4573 60.3633 14.49 60.4427 14.49 60.536V61.474C14.49 61.5673 14.4573 61.6467 14.392 61.712C14.3267 61.7773 14.2473 61.81 14.154 61.81H10.108L9.884 64.092C10.3413 63.7747 10.9527 63.616 11.718 63.616C12.3247 63.616 12.8847 63.7467 13.398 64.008C13.9207 64.26 14.336 64.6287 14.644 65.114C14.952 65.59 15.106 66.1453 15.106 66.78C15.106 67.4613 14.9473 68.0587 14.63 68.572C14.3127 69.076 13.8647 69.468 13.286 69.748C12.7167 70.0187 12.0493 70.154 11.284 70.154Z" fill="#223263"/>
<path d="M35 53.4043L37.994 58.4783L43.5595 59.8716L39.8444 64.4007L40.2901 70.3358L35 68.061L29.7099 70.3358L30.1556 64.4007L26.4405 59.8716L32.006 58.4783L35 53.4043Z" fill="#FE862C"/>
<path d="M273.864 70C273.771 70 273.691 69.972 273.626 69.916C273.57 69.8507 273.542 69.7713 273.542 69.678V61.838L271.218 63.63C271.153 63.686 271.083 63.714 271.008 63.714C270.924 63.714 270.845 63.6673 270.77 63.574L270.406 63.112C270.359 63.0467 270.336 62.9813 270.336 62.916C270.336 62.804 270.383 62.7153 270.476 62.65L273.528 60.298C273.631 60.2327 273.752 60.2 273.892 60.2H274.606C274.699 60.2 274.774 60.2327 274.83 60.298C274.895 60.354 274.928 60.4287 274.928 60.522V69.678C274.928 69.7713 274.895 69.8507 274.83 69.916C274.774 69.972 274.699 70 274.606 70H273.864ZM280.94 70.14C280.212 70.14 279.573 70.0233 279.022 69.79C278.472 69.5473 278.042 69.202 277.734 68.754C277.426 68.306 277.272 67.7833 277.272 67.186C277.272 66.6353 277.408 66.1547 277.678 65.744C277.949 65.324 278.318 65.002 278.784 64.778C278.411 64.5633 278.122 64.2833 277.916 63.938C277.72 63.5833 277.622 63.1727 277.622 62.706C277.622 61.8847 277.921 61.2407 278.518 60.774C279.125 60.298 279.932 60.06 280.94 60.06C281.939 60.06 282.737 60.298 283.334 60.774C283.941 61.2407 284.244 61.88 284.244 62.692C284.244 63.1587 284.142 63.5693 283.936 63.924C283.74 64.2693 283.46 64.554 283.096 64.778C283.563 65.002 283.932 65.324 284.202 65.744C284.473 66.1547 284.608 66.6353 284.608 67.186C284.608 67.7833 284.454 68.306 284.146 68.754C283.838 69.202 283.404 69.5473 282.844 69.79C282.294 70.0233 281.659 70.14 280.94 70.14ZM280.94 64.274C281.5 64.2647 281.972 64.12 282.354 63.84C282.737 63.56 282.928 63.1913 282.928 62.734C282.928 62.2673 282.737 61.894 282.354 61.614C281.981 61.3247 281.51 61.18 280.94 61.18C280.362 61.18 279.881 61.32 279.498 61.6C279.125 61.88 278.938 62.258 278.938 62.734C278.938 63.2007 279.125 63.574 279.498 63.854C279.881 64.134 280.362 64.274 280.94 64.274ZM280.94 69.02C281.594 69.02 282.14 68.852 282.578 68.516C283.017 68.18 283.236 67.7367 283.236 67.186C283.236 66.6353 283.017 66.1967 282.578 65.87C282.14 65.5433 281.594 65.38 280.94 65.38C280.278 65.38 279.727 65.5433 279.288 65.87C278.85 66.1967 278.63 66.6353 278.63 67.186C278.63 67.7367 278.85 68.18 279.288 68.516C279.727 68.852 280.278 69.02 280.94 69.02Z" fill="#9098B1"/>
<path d="M12.53 102C12.4367 102 12.3573 101.967 12.292 101.902C12.2267 101.837 12.194 101.757 12.194 101.664V99.872H7.756C7.66267 99.872 7.58333 99.8393 7.518 99.774C7.45267 99.7087 7.42 99.6293 7.42 99.536V98.584C7.42 98.4347 7.47133 98.2947 7.574 98.164L11.704 92.438C11.7507 92.3633 11.8207 92.3073 11.914 92.27C12.0073 92.2233 12.11 92.2 12.222 92.2H13.748C13.8507 92.2 13.93 92.2327 13.986 92.298C14.0513 92.354 14.084 92.4333 14.084 92.536V98.22H15.33C15.4327 98.22 15.5167 98.2527 15.582 98.318C15.6473 98.374 15.68 98.4533 15.68 98.556V99.536C15.68 99.6293 15.6473 99.7087 15.582 99.774C15.5167 99.8393 15.4373 99.872 15.344 99.872H14.084V101.664C14.084 101.757 14.0513 101.837 13.986 101.902C13.93 101.967 13.8507 102 13.748 102H12.53ZM12.236 98.276V94.23L9.366 98.276H12.236Z" fill="#223263"/>
<path d="M35 84.6826L37.994 89.7566L43.5595 91.1499L39.8444 95.679L40.2901 101.614L35 99.3393L29.7099 101.614L30.1556 95.679L26.4405 91.1499L32.006 89.7566L35 84.6826Z" fill="#FE862C"/>
<path d="M275.614 102C275.521 102 275.441 101.972 275.376 101.916C275.32 101.851 275.292 101.771 275.292 101.678V99.662H270.756C270.663 99.662 270.583 99.634 270.518 99.578C270.462 99.5127 270.434 99.4333 270.434 99.34V98.78C270.434 98.64 270.485 98.5 270.588 98.36L274.788 92.438C274.835 92.3633 274.905 92.3073 274.998 92.27C275.091 92.2233 275.194 92.2 275.306 92.2H276.314C276.407 92.2 276.482 92.2327 276.538 92.298C276.603 92.354 276.636 92.4287 276.636 92.522V98.444H277.896C277.989 98.444 278.069 98.4767 278.134 98.542C278.199 98.598 278.232 98.6727 278.232 98.766V99.34C278.232 99.4333 278.199 99.5127 278.134 99.578C278.078 99.634 278.003 99.662 277.91 99.662H276.636V101.678C276.636 101.771 276.603 101.851 276.538 101.916C276.482 101.972 276.407 102 276.314 102H275.614ZM275.306 98.472V93.67L271.932 98.472H275.306Z" fill="#9098B1"/>
<rect x="68" y="88" width="188" height="18" rx="5" fill="#EBF0FF"/>
<rect x="71" y="91" width="118" height="12" rx="4" fill="#FE862C"/>
<rect x="68" y="120" width="188" height="18" rx="5" fill="#EBF0FF"/>
<rect x="71" y="123" width="75" height="12" rx="4" fill="#FE862C"/>
<path d="M11.354 134.14C10.5327 134.14 9.83267 134.009 9.254 133.748C8.68467 133.487 8.25533 133.16 7.966 132.768C7.686 132.367 7.53667 131.956 7.518 131.536C7.518 131.452 7.546 131.387 7.602 131.34C7.66733 131.284 7.742 131.256 7.826 131.256H9.086C9.29133 131.256 9.42667 131.349 9.492 131.536C9.69733 132.208 10.3227 132.544 11.368 132.544C11.9373 132.544 12.3853 132.413 12.712 132.152C13.0387 131.881 13.202 131.499 13.202 131.004C13.202 130.071 12.6187 129.604 11.452 129.604H10.01C9.90733 129.604 9.82333 129.571 9.758 129.506C9.69267 129.441 9.66 129.361 9.66 129.268V128.68C9.66 128.531 9.72533 128.391 9.856 128.26L12.362 125.81H8.358C8.26467 125.81 8.18533 125.777 8.12 125.712C8.05467 125.647 8.022 125.567 8.022 125.474V124.55C8.022 124.447 8.05 124.363 8.106 124.298C8.17133 124.233 8.25533 124.2 8.358 124.2H14.364C14.4667 124.2 14.5507 124.233 14.616 124.298C14.6813 124.363 14.714 124.447 14.714 124.55V125.39C14.714 125.53 14.6533 125.661 14.532 125.782L12.11 128.274L12.278 128.288C13.174 128.363 13.8833 128.633 14.406 129.1C14.938 129.567 15.204 130.234 15.204 131.102C15.204 131.718 15.036 132.255 14.7 132.712C14.3733 133.169 13.916 133.524 13.328 133.776C12.7493 134.019 12.0913 134.14 11.354 134.14Z" fill="#223263"/>
<path d="M35 115.961L37.994 121.035L43.5595 122.428L39.8444 126.957L40.2901 132.892L35 130.618L29.7099 132.892L30.1556 126.957L26.4405 122.428L32.006 121.035L35 115.961Z" fill="#FE862C"/>
<path d="M273.864 134C273.771 134 273.691 133.972 273.626 133.916C273.57 133.851 273.542 133.771 273.542 133.678V125.838L271.218 127.63C271.153 127.686 271.083 127.714 271.008 127.714C270.924 127.714 270.845 127.667 270.77 127.574L270.406 127.112C270.359 127.047 270.336 126.981 270.336 126.916C270.336 126.804 270.383 126.715 270.476 126.65L273.528 124.298C273.631 124.233 273.752 124.2 273.892 124.2H274.606C274.699 124.2 274.774 124.233 274.83 124.298C274.895 124.354 274.928 124.429 274.928 124.522V133.678C274.928 133.771 274.895 133.851 274.83 133.916C274.774 133.972 274.699 134 274.606 134H273.864Z" fill="#9098B1"/>
<rect x="68" y="152" width="188" height="18" rx="5" fill="#EBF0FF"/>
<rect x="71" y="155" width="12" height="12" rx="4" fill="#FE862C"/>
<path d="M7.966 166C7.87267 166 7.79333 165.967 7.728 165.902C7.66267 165.837 7.63 165.757 7.63 165.664V164.95C7.63 164.698 7.74667 164.479 7.98 164.292L10.192 162.094C11.1533 161.338 11.8207 160.75 12.194 160.33C12.5767 159.901 12.768 159.481 12.768 159.07C12.768 158.631 12.6467 158.286 12.404 158.034C12.1707 157.782 11.816 157.656 11.34 157.656C10.8733 157.656 10.5047 157.796 10.234 158.076C9.96333 158.347 9.79533 158.701 9.73 159.14C9.702 159.252 9.65067 159.336 9.576 159.392C9.50133 159.439 9.41733 159.462 9.324 159.462H8.078C7.994 159.462 7.924 159.434 7.868 159.378C7.812 159.322 7.784 159.257 7.784 159.182C7.80267 158.631 7.952 158.118 8.232 157.642C8.512 157.157 8.918 156.769 9.45 156.48C9.982 156.181 10.6073 156.032 11.326 156.032C12.0727 156.032 12.7027 156.163 13.216 156.424C13.7387 156.676 14.1307 157.026 14.392 157.474C14.6533 157.922 14.784 158.431 14.784 159C14.784 159.625 14.6067 160.19 14.252 160.694C13.9067 161.198 13.3747 161.739 12.656 162.318L10.668 164.334H14.658C14.7607 164.334 14.84 164.367 14.896 164.432C14.9613 164.488 14.994 164.567 14.994 164.67V165.664C14.994 165.757 14.9613 165.837 14.896 165.902C14.84 165.967 14.7607 166 14.658 166H7.966Z" fill="#223263"/>
<path d="M35 148.239L37.994 153.313L43.5595 154.707L39.8444 159.236L40.2901 165.171L35 162.896L29.7099 165.171L30.1556 159.236L26.4405 154.707L32.006 153.313L35 148.239Z" fill="#FE862C"/>
<path d="M274.438 166.14C273.234 166.14 272.352 165.79 271.792 165.09C271.232 164.39 270.933 163.471 270.896 162.332C270.887 162.08 270.882 161.674 270.882 161.114C270.882 160.535 270.887 160.115 270.896 159.854C270.924 158.734 271.223 157.824 271.792 157.124C272.361 156.415 273.243 156.06 274.438 156.06C275.642 156.06 276.529 156.415 277.098 157.124C277.667 157.824 277.966 158.734 277.994 159.854C278.013 160.377 278.022 160.797 278.022 161.114C278.022 161.422 278.013 161.828 277.994 162.332C277.957 163.471 277.658 164.39 277.098 165.09C276.538 165.79 275.651 166.14 274.438 166.14ZM274.438 164.936C275.138 164.936 275.665 164.703 276.02 164.236C276.384 163.769 276.575 163.111 276.594 162.262C276.613 161.721 276.622 161.329 276.622 161.086C276.622 160.825 276.613 160.442 276.594 159.938C276.575 159.098 276.389 158.44 276.034 157.964C275.679 157.488 275.147 157.25 274.438 157.25C273.738 157.25 273.206 157.488 272.842 157.964C272.487 158.44 272.301 159.098 272.282 159.938L272.268 161.086L272.282 162.262C272.301 163.111 272.487 163.769 272.842 164.236C273.206 164.703 273.738 164.936 274.438 164.936Z" fill="#9098B1"/>
<rect x="68" y="185" width="188" height="18" rx="5" fill="#EBF0FF"/>
<path d="M10.878 198C10.7847 198 10.7053 197.967 10.64 197.902C10.5747 197.837 10.542 197.757 10.542 197.664V190.412L8.414 192.05C8.358 192.097 8.29267 192.12 8.218 192.12C8.106 192.12 8.01267 192.069 7.938 191.966L7.35 191.21C7.30333 191.135 7.28 191.065 7.28 191C7.28 190.888 7.33133 190.795 7.434 190.72L10.57 188.298C10.654 188.233 10.7707 188.2 10.92 188.2H12.152C12.2547 188.2 12.334 188.233 12.39 188.298C12.4553 188.354 12.488 188.433 12.488 188.536V197.664C12.488 197.757 12.4553 197.837 12.39 197.902C12.334 197.967 12.2547 198 12.152 198H10.878Z" fill="#223263"/>
<path d="M35 181.558L37.994 186.632L43.5595 188.025L39.8444 192.554L40.2901 198.489L35 196.214L29.7099 198.489L30.1556 192.554L26.4405 188.025L32.006 186.632L35 181.558Z" fill="#FE862C"/>
<path d="M274.438 198.14C273.234 198.14 272.352 197.79 271.792 197.09C271.232 196.39 270.933 195.471 270.896 194.332C270.887 194.08 270.882 193.674 270.882 193.114C270.882 192.535 270.887 192.115 270.896 191.854C270.924 190.734 271.223 189.824 271.792 189.124C272.361 188.415 273.243 188.06 274.438 188.06C275.642 188.06 276.529 188.415 277.098 189.124C277.667 189.824 277.966 190.734 277.994 191.854C278.013 192.377 278.022 192.797 278.022 193.114C278.022 193.422 278.013 193.828 277.994 194.332C277.957 195.471 277.658 196.39 277.098 197.09C276.538 197.79 275.651 198.14 274.438 198.14ZM274.438 196.936C275.138 196.936 275.665 196.703 276.02 196.236C276.384 195.769 276.575 195.111 276.594 194.262C276.613 193.721 276.622 193.329 276.622 193.086C276.622 192.825 276.613 192.442 276.594 191.938C276.575 191.098 276.389 190.44 276.034 189.964C275.679 189.488 275.147 189.25 274.438 189.25C273.738 189.25 273.206 189.488 272.842 189.964C272.487 190.44 272.301 191.098 272.282 191.938L272.268 193.086L272.282 194.262C272.301 195.111 272.487 195.769 272.842 196.236C273.206 196.703 273.738 196.936 274.438 196.936Z" fill="#9098B1"/>
</svg>
