<svg width="75" height="52" viewBox="0 0 75 52" fill="none" xmlns="http://www.w3.org/2000/svg">
<path d="M0.964848 22.4637C0.814131 22.0923 0.997229 21.6711 1.38993 21.5055L51.0904 0.564034C51.2862 0.481255 51.5096 0.474959 51.7113 0.546019C51.9127 0.617186 52.0758 0.759901 52.1644 0.943181L56.9193 10.767L65.2161 8.8389C65.6506 8.73793 66.0906 8.98478 66.1997 9.39129L73.7469 37.6272C73.7993 37.8223 73.766 38.0285 73.655 38.2006C73.5441 38.373 73.3647 38.497 73.1557 38.5455L20.2376 50.8427C19.8028 50.9438 19.3621 50.6985 19.254 50.2903L18.6013 47.848L14.8952 49.4094C14.6994 49.4922 14.4757 49.4986 14.2743 49.4274C14.0729 49.3563 13.9099 49.2136 13.8212 49.0303L0.984127 22.5077C0.97754 22.4932 0.970946 22.4787 0.964848 22.4637ZM51.0191 2.25719L2.79786 22.5757L14.9664 47.717L63.1876 27.3981L55.7181 11.9665C55.7157 11.9612 55.7133 11.9562 55.7108 11.9509L51.0191 2.25719ZM20.1047 47.2146L20.6325 49.1892L71.9754 37.2581L64.8213 10.4927L57.5987 12.171L65.0011 27.4656C65.0023 27.4677 65.0033 27.4703 65.0043 27.4725C65.1849 27.8476 65.0015 28.2971 64.5957 28.468L20.1047 47.2146ZM6.65271 24.2812C6.58287 24.1091 6.58251 23.9183 6.65246 23.7452C6.72825 23.5573 6.8813 23.405 7.07756 23.3224L14.6707 20.123C15.0791 19.9509 15.5596 20.1206 15.7443 20.502L19.7558 28.79C19.8443 28.9747 19.8513 29.1819 19.7755 29.3698C19.6997 29.5576 19.5467 29.7099 19.3504 29.7925L11.7573 32.9919C11.3489 33.164 10.8684 32.9944 10.6837 32.6129L6.67206 24.3246C6.66517 24.3102 6.65858 24.2956 6.65271 24.2812ZM14.5994 21.8162L8.48537 24.3924L11.8287 31.299L17.9427 28.7228L14.5994 21.8162ZM17.401 19.7512C17.2503 19.3799 17.4334 18.9587 17.8261 18.7931L35.0833 11.5215C35.4917 11.3494 35.9722 11.5191 36.1569 11.9005C36.3356 12.286 36.1599 12.7308 35.7515 12.903L18.4943 20.1745C18.0859 20.3466 17.6054 20.1769 17.4207 19.7955C17.4137 19.7808 17.4071 19.7663 17.401 19.7512ZM19.4068 23.8957C19.2561 23.5244 19.4392 23.1031 19.8319 22.9376L42.4141 13.4223C42.8225 13.2502 43.303 13.4198 43.4877 13.8013C43.6716 14.1878 43.4907 14.6316 43.0823 14.8037L20.5001 24.319C20.0917 24.4911 19.6112 24.3214 19.4265 23.94C19.4195 23.9253 19.4128 23.9105 19.4068 23.8957ZM21.4127 28.0396C21.262 27.6682 21.4451 27.247 21.8378 27.0814L36.4323 20.9318C36.8407 20.7596 37.3212 20.9293 37.5059 21.3107C37.6891 21.6963 37.509 22.1411 37.1005 22.3132L22.506 28.4628C22.0975 28.6349 21.617 28.4653 21.4324 28.0838C21.4254 28.0691 21.4188 28.0546 21.4127 28.0396ZM47.2803 7.16159C47.1296 6.79021 47.3127 6.369 47.7054 6.2034C48.1138 6.03127 48.5943 6.20093 48.779 6.58237L58.139 25.9217C58.3253 26.3055 58.1421 26.7521 57.7336 26.9242C57.3252 27.0963 56.8447 26.9267 56.66 26.5452L47.3 7.20585C47.293 7.19115 47.2863 7.17633 47.2803 7.16159Z" fill="#223263" stroke="#223263" stroke-width="0.5"/>
</svg>
